<mxfile host="app.diagrams.net" modified="2021-03-10T07:15:27.607Z" agent="5.0 (Windows NT 10.0; Win64; x64) AppleWebKit/537.36 (KHTML, like Gecko) Chrome/88.0.4324.190 Safari/537.36" etag="sY6OKuRlSHoJxDNL3qg_" version="14.4.5" type="github">
  <diagram id="SBHbzaq4VlbTMlePFeRF" name="Page-1">
    <mxGraphModel dx="2500" dy="896" grid="1" gridSize="10" guides="1" tooltips="1" connect="1" arrows="1" fold="1" page="1" pageScale="1" pageWidth="827" pageHeight="1169" math="0" shadow="0">
      <root>
        <mxCell id="0" />
        <mxCell id="1" parent="0" />
        <mxCell id="pMh_xQxpy7Jd_t1ipVND-1" value="" style="shape=image;verticalLabelPosition=bottom;labelBackgroundColor=#ffffff;verticalAlign=top;aspect=fixed;imageAspect=0;image=data:image/png,iVBORw0KGgoAAAANSUhEUgAAB/IAAAJSCAIAAABfshq3AACCp0lEQVR4nOzdXawt2WEX+DwiopEQEhIZzQNIPGDNQyzNgyMhxogHEkUIGzIQIMwga0atzJCBWCPfARPrRIoDSsYQDclwNJ3xhJEtBTLxARxZJnYcd65Px9/p6Va7fYI/cu04coc+jq/d7bZ9HevM/qxaq2rVx9679l5Vu34/bXXfs3ftqlVVq77+tfaq77gDAAAAAAAm4jtyFwAAAAAAAOhLrA8AAAAAAJMh1gcAAAAAgMkQ6wMAAAAAwGSI9QEAAAAAYDLE+gAAAAAAMBlifQAAAAAAmAyxPgAAAAAATIZYHwAAAAAAJkOsDwAAAAAAkyHWBwAAAACAyRDrAwAAAADAZIj1AQAAAABgMsT6AAAAAAAwGWJ9AAAAAACYDLE+AAAAAABMhlgfAAAAAAAmQ6wPAAAAAACTIdYHAAAAAIDJEOsDAAAAAMBkiPUBAAAAAGAyxPoAAAAAADAZYn0AAAAAAJgMsT4AKzdXF5fXt8n3u1zd7Dap2+vLHb9yc5UsW3fxguksppqcw+X7O8/CMVTXwKJgTXN9dDmnDQAAALQT6wOwtoy3E+n2zVV75t31eXpK66+sEvV0FB/nylGsH00x+qMSRm8/q0X/i4HK99ri64Zl0kvTfZKW4aNJ7bFgd9Q8d8ulM4Y7HQAAAECCWB9grrqb4VdT6V2D6s5phslxJZIfMtaPvr95s19ofqpYP14uq69VFtVmVE0/OdhL09yl77bUVxkAAACQhVgfYK46gu1tRL57+t8p2QnP/rF+m2LA9ZfKsY4u1g9KuvhaPPvlXyeI9ZsnccjSAAAAAAYj1geYq56xfjl0d5zcs5v6nrF+n7S+R2v91Jgur6+vqu/c3gU3CTbjXAfZ5RiCYid78SmHXE2h+CQoQzTm9UhW/w9j/auruGf7zXyFtzBWn8cjqXSdU/5VmYuoVEFxLpqWVlzmrrULAAAAHJlYH2DOmsPzOMO/iSPqpoB/l1i/2ii89SGth3bCU062+lkwTFiim+vVP9bLp2zgX35+tf1W+W4096usvf5+MY0iR6+VdDOv4VtNrfXjkbTG+qm52Mb0QQFXE4+XW/mXWB8AAABGQawPQJfWlvM7dwmzaXNe/V5TtzOb7zTF9T064akXfxVdF+3zw1i/ElvXU/R6rL295VH9dPt+HLaHUXo55kTf+uEgbbF+fL+jMdZPzUXZ2L92E6cp1h+sAyAAAABgb2J9gJnq7jO/IbI/JNxdR809OuHpG+t3fKuxtX4xZC3CjmY8juqDvxLP/q12UxTG+vXFGo850Vo/LGZZ8tb7DO2d8NTnYnu/I/Fo5PrNkfriBQAAAPIQ6wOw1u8hskOEu8PG+sGommL9dcK+HPa6fBBw8VGtLGWz/YZAPMrPt3/EoXoZwFfer46rOkeVea3M5eCx/qbP/aiADTWhGFy2DwAAAFmJ9QFmbZXpRu3Wo47Y+zXqb+vGpmGiA8X69efsph+Zu83oN/H7Mt0vm92XHdyH89Ez1g+6tw97swmXYtTLzXbed4r14+7tG2P9aif+/WL9TQmbnldQfThw37s/AAAAwLGI9QFmah3WNj2JtvIw1tBAj8xtH21rd/5hXh0VpW8nPFGWHz2Ztt7tTEcnPJfX19WMfzOCsFOeOBmvjznZt/5dYrrxowlqnf2XBQjL1Rnrb0dbPlW3cSVWuxoCAAAATk6sD0C1R/l2B/XCUn9ebj3x7jOSsPl9rWhluB2F1tspRF8bR+PzVGv98M7GiZP0tpsqQn0AAADITawPAAAAAACTIdYHAAAAAIDJEOsDAAAAAMBkiPUBAAAAAGAyxPoAAAAAADAZYn0AAAAAAJgMsT7AVP3Rv/OrXl6jfeXePgAAAOBsifUBpip7buvl1fLKvX0AAADA2RLrA0yV8BQAAABghsT6AFMl1gcAAACYIbE+wFSJ9QEAAABmSKwPMFVifQAAAIAZEusDTJVYHwAAAGCGxPoAUyXWBwAAAJghsT7AVIn1AQAAAGZIrA8wVWJ9AAAAgBkS6wNMlVgfAAAAYIbE+gBTJdYHAAAAmCGxPozS7fXl5fXt5l8XFZtPtm6uLq5u4u9Gf+9nMdaLi4bxJMqULBlHNkisv1jTfdZbWSVPoVqpa2UJy7yqq1EdjN5JiUfePjUAAACAkRHrwyhFsX6cpt5cVdPVKOTsGdJ2Tv7i4urqqiHYTye8p819uRsm1g/qUz0ML1d/ebMoFZmHKz7+PFmB2u4ZFUMkPk/eT7q6KQfe/qs9py8+jQZPzZewHwAAABgjsT6MThgvXl7fNLXW72yQvG8suc70b7b/7B3gi/VP7vBY//b6alubwnh8JfwzDv/jahWs+FXdCWpB9e9iDJeXl/UW831qcljLtv+uh/n7xPrNgwEAAACMi1gfRmmn1vpDqrWjTiX7OuEZiUNj/W0T/E2A3RjrB8NdXl83xvrJu0D1N1fjrb0dTzyu5dXPNqXdDrJ+I9xStl+o1tTL8h5GOJhYHwAAAJgUsT6M0iqivN7Gnw3hee2jZQi5DTd3bzu/Hl0qyKxm/Vrrj8SBsX5ZgYqUO9lGfhOgb1ZwY2v95egaes6pNODfVNRq3z1Rlz+Jz9K3k8INZTuGINYvx1P8IdYHAAAApk2sD2O0zle7MsX42bhl9LlPrH9T7Ue/2kd/mJqK9UdiiL71t93w3DW21i/S9EooXo6h6AsnWQGiuhVk//Hw4Wird5g6AvYwpo/LuFOsn+gGSKwPAAAAjJFYH8ZmlXterxPIxt5uLpKfJmL95jFUx1bR9ujdxueZivVP6/BYf9kQ/3p7E6mlb/24y5t0BWqJ9cPu8MMO+y+iP8q7RtuUffO9vrF+rTuh3rF+quBa6wMAAAAjJdaHUUpE5PWQccjW+jUtsX77zQZOZ4C+9S/iZD3dWr3oDb91DffohCdRdeqBfHwTIL7fkLyVFWwam21it771G7YVsT4AAAAwUmJ9GKXokbmJjs+TmeWpYv2Gj7TWP7khOuEJNLXWX1e9VEf48TpvfGRuEN3XunoKbh2k7gyVT5ko/6x23HNoa/2G/F6sDwAAAIyUWB9GqUggy6R0NK31mz4R65/cILF+mae3dcJzFz/sNuoGP0rOL6rPxy3/rqX6YeP8thD9pjvWv7oKG/+3J/Id89n1PgAAAEBmYn0YpeAppFc36+jzul+sXx3DvlrC+4awU6x/cofG+qtEv/HJtNWub7a3ixL18CKuiOmemRKpfpDr9471WzvhaShDTTTTRe8/LYMBAAAAjIdYH0an6PIkTNaroeOm1XTUGU/Zvj/ZncnOpejZ33hZNCHoiQ3XCU/b8xKua33cJL7d+SCGrsqRGnW9anV1wtMysuSnzXeptNYHAAAARkusDzBVA/etDwAAAMAUiPUBpkqsDwAAADBDYn2AqRLrAwAAAMyQWB9gqsT6AAAAADMk1geYKrE+AAAAwAyJ9QGmSqwPAAAAMENifRjY/ee+tA5bvdpfuVfUOci+Er3Wr9wVAQAAAJgXsT4MTKwvCT2Z7CvRa/3KXREAAACAeRHrw8DWsf73/eRHcxeE8ydTBgAAAJghsT4MTKzPyYj1AQAAAGZIrA8DE+tzMmJ9AAAAgBkS68PAxPqcjFgfAAAAYIbE+jAwsT4nI9YHAAAAmCGxPgxMrM/JiPUBAAAAZkisDwMT63MyYn0AAACAGRLrw8DE+pyMWB8AAABghsT6MDCxPicj1gcAAACYIbE+DEysz8mI9QEAAABmSKwPAxsm1r+9vry8vt3866Ji80nVzVX6g8QYeoxu8a2rm/WXl/9njAaO9Xda2WUVPXCSA4yldcSHb0HbESa/txr9GDaRm6u4fI2LtlLixfday7/8vGm5LD6rfHWz3wgHWX+5shqKgTajqH0vmInrq8YCAAAAwEyJ9WFgR4j140gryB7jz6JQsp63dX9SLcEqbbu97Yr9yGbw1vrp7HpZA7ZZbPHvi2RIu/v0hgxsg/sSA25BtVleDFW+11b+Q26KVVP6HsNHk6pv5+lV1zZvLQPVJrJZlPV4frMQwg/WXwv/e9dQ97YrqOdeCwAAAOZCrA8DOzzWD1O1y+ublrbG+4WSdevQrTvyE6yNzIGxft+Vvq5ZlWQ1ys13qhn7/XykeVzl8JsEeeAtKPpg83a/mPlUsX68jW9z8JZlWsx36r5Kx7yFX1lNZfXX9t1kZVguv5vVB+uPk7H+XernEkf7NQcAAABMm1gfBja61vpdrXgbQrxds1oyGKy1fnt6Wsb6142J/A7ha2vV2jHHTcb68XgG+b3L+q9y8NHF+nE0Hs9XGOL3uJ2yHVuZ2d+Ff4UN6K+Wg95eX6XunVxsmv5HN3/aY/1iOml2SAAAALAl1oeBDRjrX68zs9a2xi0pXRiCBd2orGK0sFuVaKDi7zgv1QfGKA0W67ev311a6/foar5nrL/OxKOaWvyxHiRulX9bj/WH2IJSg6zGnBhjdbNal6ccQ3yfoFqYcFpxh/JBGaIxr0ey2abLlXV1Fd/IqN8qqbfWD4fZTC74uU/Q085F2Dz/uugYPyhYtW/9i6Dz/IZYfzPF+n0MrfUBAAAgSawPAxsk1t/GdTt+qVff+q3KfK4I8Nb/uLq5vZWujc1QsX5Dur2tQUGs3zHkTrF+dVzbN6NH3Ya1MQyag4FSrfWPsAVFgXXQoj2MvIsG79dB6/iygX/QIL5cttt3oyUXtJQP3y+mES6cZIdB4VubZdq3b/1oltfvJB6bu709GP2IIXnPZv1xd2v95BOLWx9jDAAAALMl1oeBHRzrr6LJ6+L5ky3pW6UlaxyA3ZTtaHfM8opibFoDi9VGa8BYv61T847W+ntMrZLgJ9+MEvvaj0daYv1ht6DEKIK+ZSqxfv1OQLqLoMB2Xqqfbt+Pn1i9Haq2POpbcznIrq31i5muZ/yVGajfPWz8KUZToF+N9ePFve7mJzU+AAAAmDWxPgxs6L71C8kErTuUrOrR+nUbrBW3BeRqIzVQrJ/Km8Ou3cNYf9tmf5Wbr3t72TXg3yHWb+4TKmjG39G3fjhLh2xBYWBdfLHWA390myxesMFflYbzmw6GogKHsX7yhkQw5qbHzt4W9zaiHz2039zr1ai/8uCOhu+EQ60KUf5uoKO1fvFua49NAAAAMFtifRjYER6ZG3YrEuZlfUPJjhb7lQ5Uyq6zow5BZGsjNEysH7cHL98MkuKyqixr2c2y4lX+s1+sX6+Iw8f6h29B64R9ey8j6uImdfesvBXWEOtHC3z7R2UtFDOWXDs9Y/3KAi//vroMGukvZqu+9tK3Basj79VaPxgouneRjvXX/RfVH/mtl30AAAAIiPVhYAPH+mVsuX9b47CxbrXHjai5baUXjkqXK6L90Rki1k90m35XiY2DmrXpUb1oo7/8+7rS6n6HvvXbnpE6UKx/6BZUjHNT7M0cV0Lnu7C//PArHbF+0LNNuCLCPnCiFRTeEukd60czfhvdibltui8zXKwf7WziRwHHo1g/7Lf6zILt1zXbBwAAgIBYHwY2bKy/fS7lOg6r52V9OsroFevX7PnMXU7p4Fi/MYSvdglTDh4/J/W26Iqna4zRWJoH2DHWL9rgV/unH3QLqhQ7bn4elTH+YncnPKtSxRn/ZgRxL0gXxfCp7n2Sfevfpae7XVDxniBevrVRNo28R6wfrIjkrZiwu53wmcLlkty26tdYHwAAAApifRjY4bH+OtFat4ROBHuJwLFhLB2x/vVVIqeLAzXG7cBYv9q/S72XmkgtpC7z97064akXZqCKN/gWFN46iIs/jrtfqdb64S2L1ON960/Kje7I7NJav7k3/u3Dhat3iW6LB3KXa2IzxZvEbmn93ggWNAAAAIyFWB8GNkxrfehhoEfmAgAAADAlYn0YmFifkxHrAwAAAMyQWB8GJtbnZMT6AAAAADMk1oeBifU5GbE+AAAAwAyJ9WFgYn1ORqwPAAAAMENifRiYWJ+TEesDAAAAzJBYHwb2c+9+sA5bZ/vKvQZmJPu69vIa2yv3RgkAAACnINaHgYn1c6+BGcm+rr28xvbKvVECAADAKYj1YWDrWP8/f+zXcxeE8yfHBAAAAJghsT4MTKzPyYj1AQAAAGZIrA8DE+tzMmJ9AAAAgBkS68PAxPqcjFgfAAAAYIbE+jAwsT4nI9YHAAAAmCGxPgxMrM/JiPUBAAAAZujQWP/rj759/7kvvfkdn/7Bn3nqT/+9J9YZk9d5v77rsfe95qc/vljp73n6hYdf+9YgFfGcPP3gq9/3kx+99/ab3AXh/K03ydylAAAAAOCkDor1P/ypL7/y3nX2lNkr4+tP/70n3vP0C0NVx/Nw/7kvLZbM9/3kR3MXhPO33gxzlwIAAACAk9o/1n/LOz+bPVP2Gsnrscef1Wy/cP3JP/jzb/rgD/3vTz394Ku5y8KZW9S0V73xSTUNAAAAYFb2jPXf/I5PF5Hudz32vr//C8/9/K99/sOf+vKwhWOcnn7w1bfd/8K9t9+E3S5pnL723Oe/8l9ffOi73/CB733zR171xidfee/adsExLGraq9U0AAAAgFnaJ9b/8Ke+XIS5f+HHP/z8w28MXiwm4eHXvvXY488WleHnf+3zuUuU2VOfffjdb/jAk5984dHWJz738NUXH7r/3JdyF42zoqYBAAAAzNnOsf7XH3276E9fA23ugp9u/PHXvffBCy/nLk42L3/zD1998aGPf/oPHsV+94UXX/H6+4sNJ3cBORNqGgAAAMDM7Rzrv/Njv1/0vaOdPnerOz3f849/c10r3vLOz+YuTjZPffbhq9745KOUv/HPf2ux4eQuIGdCTQMAAACYuZ1j/Tf9m/+4DnDvvf3mGAViit52/wvrWvGDP/NU7rJk8/h7P/cjb3320aNH/+7dn/iX/+pD69fi34t3fuKXP/Xmd3w6dwE5E2oaAAAAwMztHOu/5qc/vg5wf+mDXzxGgZiipx98dV0rXvH6+7nLks1vfOL2e9/8kWQb6scef/Zt97+Qu4CcCTUNAAAAYOZ2jvW/67H3rQPc3/69l45RICaqeHBu7oJk8/Br33rlvevffeHFStL64svffMXr7+uxiqGoaQAAAAAzt3OsL70lScVY+KUPfvGv/NTHXnj4cpi0Pvb4sz/77ge5i8ZZUdMAAAAA5kyszzBUjLW33f/CK15//8+96YN//Z/91hve9slX3ruWtHIMi5q2qF2LmvaXfuLDahoAAADArIj1GYaKUfj3H33+j/7Qr77iR+//7LsfPHjh5dzF4Ww9//Abi5q22OjUNAAAAIBZEeszjGlVjPtP/6f/9fL/+/43PPGf/aVfmtbrL/6D9/3wWz7y/77/c7kXIfsYecVTu5ibkW+SM3/ZI50NG9rcXjbeszHdjVclBGAmxPoMY0IV4+Ktz2Q/1zz89bd+/MmHLz7KvSw3RnjSP8Kz+QlVPLVrDq8RbiMnNqFNcuYve6T+rxFu1za0Ob9svP1fNt45VEIAGJxYn2FMpWIsTujXJ3k/+i8+vji/n9Z53te/+YeLMi9Osv/EX37HYhYWVya5S7Q08pP+kZzNj7/iqV2zfY1kGzmx8W+SM2ePdB7btQ1thmy8Nt7sxlkJAeAYxPoMYxIVY3GGtzi3W5zhLf6RuywH+e3Pf/XP/OA7F/Pyz/71J/OWZJwn/WM7m59WxVO75mBs28iJTWuTnDl7pP7Gtl3b0GbOxtufjfdIxlMJAeBIxPoMYxIV44ff8pHFid3ipDl3QQbwK09+YTEvf+5/fE/GMoz/pH8kZ/OTq3hq13yMZBs5scltkjNnj7SrkWzXNjRsvLuy8Q5uDJUQAI5HrM8wJlExFqd0ixO7jzx3m7sgA3j44qP1VUrGMkzipH8MZ/OTq3hq16yMYRs5scltkjNnj7SHMWzXNjRsvHuw8Q5rDJUQAI5HrM8wJlEx1r/A/fo3/zB3QYax/qFuxgJM4qR/DGfzU6x4atd8jGEbObEpbpIzZ4+0qzFs1zY07my8u7PxDi57JQSA4xHrM4xJVIz1SWruUgwm++xM5aQ/+9l89jW1h+xlnkrtOg/Zt5ETy1692VX2VTbFPVL27Tr7WmMMslcDG+8esq+1YZ3Z7ABASKzPMCZRMc7srC777GQvQE/Zy5m9AHvIXubsBZiVuS3tuc3vGci+yrIXYA/Zy5y9AIxB9mqQvQB7yF7m7AUY1pnNDgCExPoMYxIV48zO6rLPTvYC9JS9nNkLsIfsZc5egFmZ29Ke2/yegeyrLHsB9pC9zNkLwBhkrwbZC7CH7GXOXoBhndnsAEBIrM8wJlExzuysLvvsZC9AT9nLmb0Ae8he5uwFmJW5Le25ze8ZyL7KshdgD9nLnL0AjEH2apC9AHvIXubsBRjWmc0OAITE+gxjEhXjzM7qss9O9gL0lL2c2Quwh+xlzl6AWZnb0p7b/J6B7KssewH2kL3M2QvAGGSvBtkLsIfsZc5egGGd2ewAQEiszzAmUTHO7Kwu++xkL0BP2cuZvQB7yF7m7AWYlbkt7bnN7xnIvsqyF2AP2cucvQCMQfZqkL0Ae8he5uwFGNaZzQ4AhMT6DGMSFePMzuqyz072AvSUvZzZC7CH7GXOXoBZmdvSHnR+X3rrj/3qdz7+/EBjG87zn/n+v/PME/X3n3rmO5PvH6UAT751oAWTvYpmL8Aespc5ewEYg+zVIHsB9pC9zBkKcMxjVvblCQDHM6FY//l720kXr+9/10u1wZYX2IuPvvPHPvOgbWw9B7t74vGWaSVGmHz1uOBv+3ptDG0Dd5XzWM471n/wrie/MxVPNL1fWNSfnmt/jxWX/SQ1ewF6yl7O7AXYQ/YyZy/ArMxtaQ84v51HgbvlgaBpgF63BJbHkcS5yvKkqO3AsYxIEgMsC9x05lOkJ6vv3nuqadTbM6j2GRfr55a9zPsU4KlnuivtyW5NMYRJ1sPcspf5kAKc7pjVW/blCQDHM4lYvzUxrx7ph431y3sJPUfYFs23XYQMFut3X2kfx1nH+k1nosv32xOZItZf/KP5XFasf1zZy5m9AHvIXub9C5BKfBouMitWGeuuV4+LyR18wZld9tV9YjvP71PPpI+ztfdTh+BVvUqfAPSJ9dsOQB0HjuW2kCpM0xRTsf6Ddz1Zn8fmxD8soFg/s+xl3qMAy311rdrsHOsPWvc40BTrYXbZy3xAAU54zOot+/IEgOMZf6wfBOu1g3oqqRk01o+v2FuvY1tGGKXwDSc0fX890D5w8duC07djOuNYv1iqlZs0b02FHZVVvI31n3/i8WfiOhyep4r1jyt7OQ8rQPWHSu2XN+sM7gxaNu1dgMRxoemX3RWrHX6vvDKc3FPP3CsPEH1v0DZEpdl+iZV9dZ/YQbWr2ABX2Xf9pntqC226Y9QjsGgMKHtEJHcvPah8sb0ZfkOsv+cZhVg/t+xl3vukq7Kx7B7rv/TWx3ufCa9qe8f+NjVMdctNDdN2TOkz3UDTwT15jtoywsrw0Vwk9mnlZ/f2PbWYaD3MK3uZ9y/AKY9ZvWVfngBwPGOP9Yvso/cRfcBYfzvM45/Z/qPl8rRzhGVec0DfQd0DF0vsxL3xnG2sv036lleVtYuf5UJuTQyja9HoTHeOsf6uF58S6qYl1vyLnHI/c+BV0GQXWv26MZ2VJ1uEtdTP9ura49cAUYBb+1H5stjRKjtta9Psq/vEDqldm9XUlOk3VYN0XtYd69fvAG2rbjoiSd4xKvYJTZ9uxrNfrJ/6yULna9cdVPYq6u7s6QpQ64tjr054ev/6qiGOj757wDA7xfrN673x4L7DmVXDptp6q7Is7lxjfRvvbk56zDr+7ADA+I081i/6b+3fUmy4WH97wl2cVbR2btNrusXJd+0sf7BYvyj2iZ/gd9qKsafdz+rCbnai89GwzWZLole5Fl1XgFV9Fut3nqPPPaFu2F209mq9umj//sefab4y72uiC634BXexha733vWgP9EadPcmyf0enhFMtH+sf9rOo7Ov7hM7oHZtVspq1X+mrYfA2upbrPR773qp/vvC1p3/omJEW3pQUVtbPqbrT63juMpgQ7bW32RhQ1Xj7FXU3dlTFmBR61Z1O/FUrX4h+Fptv5oeqpZlB+f/Bw1z+HQL/Q7u6+NdcpaLeLTy9ajNilg/ZuPd/XunPWb1ln15AsDxiPUbB4saXGxPtdu7R+8x3e2F7p59B/UZeDsJsX7NHjF09YorqA/BKftijSRP8avtf4P6M8dYP9Ry8bkx84R6NftNu77N3inZL9nygqqlL+++JrnQgntsm413nfI/FW2wT9Q7Z2hoNZm+ng8W+yGxfn3M4eYwyDPi+su+uk9s/9pVa56fvNfbO3roaq1fe3JDUHtXEcliD5msJ6kC1JuR1htB1zPTJ5qbUraUfPk4meXe+8l7jz85yG8Hs1dRd2czFmDfR+b2OxQms+yn4o4T9x7mwOlu9Ty4N55ZrafV+QswsX7Axrvnze9THrN6y748AeB4Rh7rlydVvS8Lh4r1N+H4drp9+9jpPNto6FZo+Nb6OuGp2/msbpewL8rmtuHIvcebHqcp1u+I9WeeUK93fc3LZ71YKleV5VV3qon6bqa40MIlUDSm3izD9cX2u55PVad1i85evb5WQtjhW+s3dctw5Nu02Vf3ie1du+J7tJ2xfnlntyFQ6+gnpPas9bAWBU8equ8hExFJolVBtQI3BCvrZ8nEH7Uettbj2XQkVW28uZ/sVdTd2YwF2DPW73k+nMyyK2/uPcyB092+2/Pg3nRm1XVG0T71ahl2Ncl6aOPd917ISY9ZvWVfngBwPGOP9cO2Y/0O5APF+pvzueBatAhq06fFvXP59GXGULF+ayuSYzrPWL9J/yc4Vc9Ti4BDrN8e6888oV7Nfus1YX0BRgtqfXF+QHPvCS60qGFX/dov6ALrrvJ+z94e6keicCpdPcD2j/Wre++9r2P7y766T2zv2rVem9s607u1/rZvqJrWLT3x4Jbw5lPx79RI4nb3y6m/a3WPOSpY7dDTHOs/UZ2F5u5NiuNjUZlr7Tf3kL2Kujt7ggKUHcXE9XC/WH9VdZe/F+l6vm5jq/ly4aeGqa6g4VrrV1Z6/4N7w5lV75RZrL9l492nAKc/Zh11dgBgIkYf69eykj6tKQ+P9TcBUC12ab670D+XT45nkFi/jKVO3FT/TqzfNmR53r9tyHMn1m+P9WefUPe4fq5e/FcuMpPXnDuY6EJLxvrh/rz5oeKHttZPdUEejrNfJzzlHuOl4qcGYv3B7T6/m8NuPdZvvP3TJ9Zv7RljM5XwIBKNp1a74oYIZQHCMUQHr15PdNhU7MpRr/GRzkGp4sp84GlJ9irq7uzpClCrh4c9Mrdr317PsustexqHCYqR+q1V5xO8OqZbzEi/g3vDmVXvRL7rJ6qzifVtvHveCzn1MeuYswMAUzGBWH+pdqLZ2cd9z1d7PzaVU4emxp7hdA+M9bvTge6BT91Of63/Ms/42u+srqkRbo81dRc+PGrdcCy6MBsi1p/c8gyXastvXwZPqCe1oHaP9WvXkE0/Eu9pcgut7Cok7oSnUs0ePB/3q1Yun1PH+l2t9TPE+hlX9wRq1489c+/HErH+Qa31V4Pde7ypL+z102tfeuvq3GMxofjx7NUaG30aNpCPIvigzPVstCXWj2e2oYPjeMcVTXf/OGYtexWd7t3ZSS20zWJZ18OmB5ZWXun9dv/HPjdk2dFok5F9j2e0dMb63bOzy8F9zLH+pOqhjXf3hZblmLXj8tzrqwAwdhOJ9Vcq6WpLT7X9z1qSJ22bM+ZUx3/pc+5gunlj/dM30i9kPPU84knqSiK/SLbWT59ubs5Ha9daYv3mWH/2CfUeLcWe2F5EBeNYNwQ+6BJoQgvticeXR4QHUayf6J64sdYN0QlP/1i/kVh/pLVrsS7KHfVQsf76K8uaU1u/izfDzTn1K5O2G1HRYav+o7GmbSTuBqGMRIvhN+NMHrNqQVilRX//X7mlZK+i7s6eZKFtFsvhrfXb88RILctObK31Yeprdq9OeDqmu+PBfZBY/0id8EyqHtp497n5neGY1ZtYH4AzNqVYf60S7id7kEyfcPcdrN6Kc5dv9e5bf9hOeMoOSY+c/jTJXjH6yBHrl83N6g9J1glPMuI5UkK9XzkHcbR+XYsF0hZJT/QHywdurdHlX2tXJ1una63f9AOgZQmfKq5my9bNOuEZ3F7zm471w1tr/WL9598adDTc9ECFulUfbpUntbRGJFH9rz4o6N67EkexoA6X1a88AoZ95aeqeqrxcjxf60nPZY80lruze311GAPF+rV7op2xfq2mtTXY7xPHV4ZJPk91kL71awPtdHBv6Vu/16anb/0NG+8ABTjBMau/7MsTAI5nerH+WhGVJvugPCjWj1urNYYv1ZPe3rl8usn/AH3rN/cZfQojqRjtBor1t7+3qLcm69V4qh7ii/VDEuqVZGqwVW0F1rrXms11+FI11k9cV68v15tS1N6PFlwZoLV+5WmixdVscFkr1h/cQLF+284qHesHqVlYYbYjbJZ4kGZbRNJ2j6H5fCMZ6wejWtfhz1QPWE3pVfJ2xXrPtnt9zl5F3Z09XQEqNbbekKIj1i961a+9max4e8T6ybbYx4j1dzy4N55ZtZ5R9CvSrGJ9G+/BBTjJMau/7MsTAI5nqrH+XWOKfWis37Mrz9pZb99zjm0H/fvdjWgfePv+vm1DDjGeitFigFh/nVM8tb7IXJyhRt2/1s5Wy+6SKr9CrbfcF+tvSKi3Wn7nEW/m0cM8I71aqQ9Z5gEN2Vp/q8+F+k47/0qsnxw+HesXV62VWD+Ykf3Sz/1kX90nNkysX+8ooL21/lNBZNb3CbSbj1OBWktEEv2MINmlSbJ2Bf2WFMep+PCUCuWDQ2THFhQ+THLXQ172Kuru7B6GiPVTGX1rrL9qI9z4hOqG51jsHOvf1RtoDx/r73xwb24wUW6bid/oVH7ZJta/s/EeWIATHbP6y748AeB4JhzrH9abTdNgmwYXLRecDQ/O7TfddJn7F7tr4O2Z5em74hlRxWh24Fld2ZKxvDhsfgzg+pJgvY7CHhgS8Y1YvyChDjVmZN9Z67G66eIz8cPw45Z5MIPG+okdey33L1vbpffDqYv8rtb6ocZYP1it269vepBo/2HBkLKv7hPbO9YPE+rKD7naY/3EPZ64msVdgVen2/A89qZNu3xUe70wm33v4/WmlGEVTXcQtNuPAvt1LtRT9irq7uwe9t+Nb5ZMQ+8xzbF+22N7mvbS+8b61d9+NTxvtnHMndPd/eDeOvvNZxRi/RQb774FONkxawfZlycAHI9YP9GPTccZ2Pb6PH2e1zbd4lzwgD58ugZuOA09uhFVjGYHnNWtrmfiK5+oS+V6QBOv5fKdhl6J5xO8rqUvPiXUdQ1JQfigzrbFsm/vrhNdaLUus9aXl4kOvpeDPf/Sg+23wkPJ5s9iPOl9/tIu3eNEsf4qXdruEGp7jz8a7172/rO/7Kv7xA5srV/82fTTjWQqET1ct2/k0dIrVPOBI65U4UYR7Xgr/Y9Hx7VNrF/5bngvqntXLNZfcnd2n85PNjvk55+/l2z00BDrt2f6xfj36RO/aZjN7d6yi60BY/09Du7dS6BWyESHWmL9DRvvngvtRMesXWRfngBwPCOP9RcnB41pVNFqbPd4vWmwnt/ddq2+23fLpqAtP489PNYv73Yc0AXhHs431k81mK3/lHt9Wt+6zCvtHMMuO2Z2pbSUvPiUUPfS+KOfIU10oSUecB1qanGfCh+bn+ASf3evWL/sje1dz1TuH7T3vy/WH8QA8xs9BXdpXRmSj68Pu7lo7CHkrp6ptT+2sSkiabr90HyLq9bX/zbWj7riibasPl3ki/UL7s72E+zBup9Z2vzd7iFP8yso1iZXDyM23h2c9Ji1k+zLEwCOZ/yxfuWnjhvllXNT//J7xPrbU7fOVhWp/vFbphs9San9t7EDxPqZnp17lrF+Y7unph5a9z3d3E/2k9TsBegpezmPUIByr3KkzXyiCy0d6+9wszPaXW/7T29o2LhbrB9e0JZNoU9/CzYp++o+scPnd7/nGHf11BT2O9/8hM/toOmIpNa/0/pcpbmTn+K3aM/fi+8o3Ht8fT+pqZu4+Eds6XkR6zdwdzbp+c/ci7tKS7aVrgesDb+AadSnXT9DmV49bGfjTTv9MWsH2ZcnABzPyGP9u0rIUnmljvf7x/oND7NNSXRh3/2sxT798zR+t+8thLXt7wlO2BzpLGP9kcs+O9kL0FP2cmYvwB6yl3mIWL/v7dLyPnGPyDXc+Xdlu9GOPerMpNbwufN13gnCiZ3x/G4e53t2sq8yd2enWADGIHs1sPGOuQCnOWZlX54AcDzjj/XXquF+c/iyd6yf7Fqnozz1JyY1tSTqGuGwsX5w4+FU7UDF+qeXfXayF6Cn7OXMXoA9ZC9z9gIcz4N3PTm2VqJnvLST5ja/ZyD7KstegD1kL3P2AjAG2atB9gLsIXuZsxdgWGc2OwAQmkqsz9hNomKc2Vld9tnJXoCespczewH2kL3M2QswK3Nb2nOb3zOQfZVlL8Aespc5ewEYg+zVIHsB9pC9zNkLMKwzmx0ACIn1GcYkKsaZndVln53sBegpezmzF2AP2cucvQCzMrelPbf5PQPZV1n2Auwhe5mzF4AxyF4NshdgD9nLnL0Awzqz2QGAkFifYUyiYpzZWV322clegJ6ylzN7AfaQvczZCzArc1vac5vfM5B9lWUvwB6ylzl7ARiD7NUgewH2kL3M2QswrDObHQAIifUZxiQqxpmd1WWfnewF6Cl7ObMXYA/Zy5y9ALMyt6U9t/k9A9lXWfYC7CF7mbMXgDHIXg2yF2AP2cucvQDDOrPZAYCQWJ9hTKJinNlZXfbZyV6AnrKXM3sB9pC9zNkLMCtzW9pzm98zkH2VZS/AHrKXOXsBGIPs1SB7AfaQvczZCzCsM5sdAAiJ9RnGJCrGmZ3VZZ+d7AXoKXs5sxdgD9nLnL0AszK3pT23+T0D2VdZ9gLsIXuZsxeAMcheDbIXYA/Zy5y9AMM6s9kBgJBYn2FMomL8mR985+Ks7ulPfzl3QYbxJ/7yO5z095G9nFOseGrXrMxtaU9xk5w5e6Q9ZC+zDY07G+9espf5zDbe7JUQAI5HrM8wJlEx/taPP7k4q/u/fuXTuQsygI88d7uYl//qv393xjJM5aQ/+9n85Cqe2jU32beRE5vcJjlz9kj7yb5d29Cw8e7HxjugMVRCADgesT7DmETF+D+ufntxYrc4v3/+D76euyyH+v43PLGYlx9+y0cylmESJ/1jOJufXMVTu2ZlDNvIiU1uk5w5e6Q9jGG7tqFh492DjXdYY6iEAHA8Yn2GMZWK8Rf/wfvW58r3n/5Pucuyp889/9JffeP9MZxtT+KkfyRn81OpeGrXDI1kGzmxqWySM2ePtLeRbNc2tNmy8e7NxjuU8VRCADgesT7DmErFWJzhLc5Q131WTvH1X/y1f1v8470f/WLuxTnqk/5Rnc1PouKpXXMzqm3kxCaxSc78ZY+0n1Ft1za0eb5svPux8Z5xJQSAIxHrM4wJVYyvf/MPL976zH/5374r+xnnfq/Fuf7r/smHsp/ur432pH+EZ/OTqHhq13xeI9xGTmwSm+TMX/ZIu75GuF3b0Ob5svHu+rLxnnclBIAjEeszDBVjtkZ70u9s/gyMtnadx8s2AjuZxB7Jdg11Nl4A4CyJ9RmGisEg1CIA5sNRDybKxgsAZCfWZxgqBoP482/64Kve+OTTD76auyAAcHSOejBRNl4AIDuxPsNQMTjQc5//yqsvPvTdb/jA9775I4vLpFfeu/7wp76cu1AAcBSOejBRNl4AYCTE+gxDxeAQT3324eLq6MlPvvBo6xOfe7i4ZLr/3JdyFw0ABuaoBxNl4wUAxkOszzBUDPb28jf/cHE59PFP/8Gj2O++8OIrXn//64++nbuAADAYRz2YKBsvADAqO8f6f/x1712ntw+/9q1jFIiJKipG7oIwPU999uGr3vjko5S/8c9/650f+/3cBQSAwTjqwUTZeAGAUdk51v+ef/yb6/T2PU+/cIwCMUXPP/zGulZ812Pvy10Wpufx937uR9767OKK6N+9+xP/8l99aP1a/Hvxzk/88qfe/I5P5y4gAAzGUQ8mysYLAIzKzrH+vbffrAPct7zzs8coEFP0zo/9/rpWvOanP567LEzPb3zi9nvf/JFk06fHHn/2bfe/kLuAADAYRz2YKBsvADAqO8f6i/OVdYD7Pf/4N3UgyNrf/bmn17Xi3ttvcpeF6Xn4tW+98t71777wYuUC6cWXv/mK199//uE3chcQAAbjqAcTZeMFAEZl51j/wQsvF72o+6UhC7/0wS8Wz8u9/9yXcheHSVrUor/yUx974eHL4QXSY48/+7PvfpC7aAAwMEc9mCgbLwAwHjvH+gs//2ufX2e4f/x17/Vjw5l7z9MvfNdj71vXh8UZbe7iMGGLnckr713/uTd98C/9xIff8LZPLv7tAgmAc+WoBxNl4wUARmKfWH/h+37yo0UD7df89MfvP/elh1/71rAlY8y+/ujbi5X+2OPPFtXgT/+9J/zylAMtn738Q8vqtLg6evDCy7mLAwBH5KgHE2XjBQDGYM9Yf3H68sp710Wk6zWrV9ELU/H6rsfe956nXxi2ajJP6xqVuxQAcAqOejBRNl4AILs9Y/27VXvtN/2b/5g9YvbK/vq7P/e0dvoMZV2pcpcCAE7BUQ8mysYLAGS3f6y/9uFPfflN/+Y/ft9PfrTegtvrvF+Llf73f+E5jfQZ1rp25S4FAJyCox5MlI0XAMju0FgfYECukQCYD0c9mCgbLwCQnVgfGBHXSADMh6MeTJSNFwDITqwPjIhrJADmw1EPJsrGCwBkJ9YHRsQ1EgDz4agHE2XjBQCyE+sDI+IaCYD5cNSDibLxAgDZifWBEXGNBMB8OOrBRNl4AYDsxPrAiLhGAmA+HPVgomy8AEB2Yn1gRFwjATAfjnowUTZeACA7sT4wIq6RAJgPRz2YKBsvAJCdWB8YEddIAMyHox5MlI0XAMhOrA+MiGskAObDUQ8mysYLAGQn1gdGxDUSAPPhqAcTZeMFALIT6wMj4hoJgPlw1IOJsvECANmJ9YERcY0EwHwMf9R75ofvvv31IUcIpDhlBQCyE+sDIzLYNdLt9eXl9W3i3aub8s+bq4v1n+mhAeCoBk4Gv/LU3a98x91nfqZtmMWh76I45C3+aDj8LQ6M8XDB4XPfg+ZynKkvrqYVHp5HY1WyldYZri+Q5VJu0zC6eDnXS5Ecg3OYPAbYeOs1v2llLocsBhxwjadrXPRhsi7vtrmGNXj1zeQc3Fyt36vU92JSrWXtHKRhX9e1pVY21m0ZyxmrTa9tjJWLkF12DvEeuXP2xrpX2K6hPuXrscIBEOsDozLANdL6JLByurg5M4xPv4tz89RZOQAc28Cx/kdfu4z13/MnuxrsLwOlprwujJWCHL78Z/OtgPYJVidRvtc2uijO3NFOJU0ujPrXK5FjkUPWY/2WUkfZYPjltq/VlsT2izsFeIcsTyIHb7z1Knd5WbmBs12x8To+Uay/+aySZHd8Kak4zy5G2Xh/b30KX4nyw//Gi61Sjt1j/VQpE7NcLWPLKBvL0NS2qPr1zr1OYvdUHVm/VXSyvWvqS90jEOsD9CLWB0bk8IAjcV1eXgpEZ9TFiXM61xhlIxcAzsmQsf66qf761d5gf22T7XdqiJR2PE4GYVWZzo0xeCq/23+yQ8b61ROY6hjLwcX6eR248RY/m9lsiOvtbJtbx2t0tYpvmjbEndZnd+v0ILRe/XPwWL++RyknsJzYzWro9XfSsX6RvrfG+h2zup1or8F6NOqvLrfmpdBRvGqr+8Sutvqbq+q3K+Nu2j+ceO9a+Url11uNB5rkUgagINYHRuTQgKOpW51ErF+5QB7rr1UBOF+HHvUeffnu9v13v/eLd799cXf9PWWs/74/tXznweXy0298MfzG9kC4OgimgqWOpvP7HyqrP6Y7j1g/0eJ6E6ulF+8qmNq5tX6yCxaxfl4DnLL2zDCrd+CGOmW9ublZV9SbdM9P2yh+iFi/nKer6rc3E6j8hrZnrH+dDIPTjejTCy28dKi21m9c0u0/C+gVSne31i/7aAqGXY2+sWX+6tu9f9txyr1rclrt95a11gfoRawPjMiB10i3NzflqXBrrL89VS7OMsX6AJzaQUe9rzx19x/+WBnlN73e9Ufufv/dxZdub64ug75jqu3mt5lSvcHw3V3jobKrb/xUM8zL6+ur6jtRq9jgcB22743br9dDvLA3/OsgeArKEI15PZKisXS/QC4xg5UYcNhOeBJlC8K7YgSVOWqZ66Zl0rBUqyul6bvzMlhLlI7P42b8NfucvG7WXhiYX9TuHGzf6Opbv8ejMVan3+V9vbKroahdzTbj3SnWP7wTnq7bK8kO/1tWQ737/WqXnz1u6NTWazH9+vxVYv2rq8uGAuTbu6aPJ+WE0itNrA/Qi1gfGJHDrpGazrlXJ59RrL890azk/AEnkgAc26HJYGeyH2f6G/XseXs0jHL7IGVrT5165HrFgFF+XG2IGvbKcHMdpGlBp3llQhU2Xw2it6hVa/39YhplWprS2JQ2tRyaY/3qstvml6meMtIaCnh7m471gy80znVZsuqnqaXatFJq352bIXrQajpxje+fLHPwYVrrb6pctJGHP2O9KM6Oy2mGfVYGXenE89Bj86//oHY95mBu1v/sjvWjBVWZhZ1j/W1BUt3dNHay3zyhvj1yNd3OS96rKFZasFdLjr/ctaR+3ZNp77pc9FdXTbdFwtS/bZc4z70MQA9ifWBEButluLW1/urD66uBrpEAYD8DHPVakv1kpr/RGim39Nmw16GyHl5eLh+ZW7TRjZqPx5lWnBqnO43YBnbVT7fvxz09bIdqz6NbG4pWw76o/XA11o9KH8X6O061uvyTsX79rkx9rrfZaP3TSlnKgK7a6UfHd2dhoFi/XhWiWrAKWJt7m9kz76xVtLhKLlPfnZrCt1vPZZFO3zTG+sXgyUC/sbV+qv1+/xbxxWiT0XO/tvrBaggKlfqJTDiXTWOqNDiq/fKmMmg8q+UNxsoDvUexd62s7NQkE9vEfO8dAvQh1gdG5OBrpNRZ71X1kbnFNZJYH4CMhrmZHT4sN3x9/hfSw9/GD5WJc/W2TpkPPVSGrfXDrjcSfT8E7XfTEXIlttvEW1HxwuCpnsBFY96lW4yiMXEQvwW9XERBY69YvxyoEugGCV3i3CYZ60e/hmiZ6/SnqaVaXykN352b07TWX2k5Zd1xm6yuu0SUHSbkbXF2/8kWsX4toN5Uybip+uqNzXz17IQn8dOf2mw3fVBuzKmG9rtW7co+brs8678V6N9aP47367OUaK0fTiEoUaa9a1zqSk1ODHYbP1t4tjcOAXoS6wMjMkSsH1/kRpcCtUuH+hcB4FSGifVf/GQ61v+9X0wOXsb5QbpTBG5RytOSRO1mnQEtR39dvZmQSuLKhqUNwVMU023/qGR3RRPPdKbXHha1dbJxFcb76XyuVyc8xZxeXt/cRrF+/G5Y5K7W+nGs3zzXyU+TSzX6avN35+dorfXrWk5Z92lCv62V4UhqOX1lxDdXy2fdXl5e7bEDqMf6cTUOu3YJ/lntKqgl1m8odPlu3M1PtXQX6a01Xiitt/6CG6OJUL6+z+oZ69/UHnpQvF1dOtt/1+pTrUgZ967V9dNU/8uvx7MKQIJYHxiRY8X65actsf6ejZAAYD/DxPpf/LfpWP+T/zA5eHmnuyGiivpuaAmzgiir85G52xRpm8tdFwfkKMoLR9kzeIqbxEYNUcPn8IZBemLMDQspNS/hwluHjfWELdlaPxh5qtecoNgNBUuPrSHW75jr1KfJpZpYKckxz84xW+tXqkAq1i8eOb3j0l/V1+syJ1+v9GWVvKl24lQ5ZS6b0tfnobUQ6Vi/2LMU3fJEP1uJH8oalCjaI3XH+u2/OdouyuU9i46EPthqi39U70xW963VwoQZeavkXqNhrjti/XKflHvvWr8DUP8RQ21+57lzAdiFWB8YkUFj/c0Pi4MTxpZfuWqtD8CpDRPrf+qfbnL8j7522Zn+J360/DOhrXlvcCxMBS4Nh8ruXK8cMJXll98NUs4gVkoET3dhKHhdTaE2IwhnoczE0h1QVDUspbidcxhuxQuotQ11qq+PppwyOfX45KYp1u+c6/qnyaVaXynp787NMVvrVyLlPqesvZrtV247hY2iq3eawl+OxO9Udg07xPrrSnTdELSXPyMK+5Ov3WjYpbV+tElEWXpYguBb8X2WXWP9aqge3P1r1b3uioWXGCy+R5D6MUK5NPPtXVPN7ht+91PO7GaKs93HAPQi1gdG5FiPzC3ORNPNkOpfAICjG+ao9/G/efebf+Hu9v3lO1/7neWb7/+ziYETcX0YZQWRb/2oeMCh8uYqOApHoeU+vYgcTTLCbhY2QI5OM5IzVR15+Xf7Um2K0BPnNpxO5tb69VW+Q38ltfpZb+UdNOWvf6n9nliiXBeVG1GVmS17BavueFb7irZQuzLCYJDqZJIh/XbGrusJfLHdlQVo1druvKVcjWPruTdKtdZP3wHMJa6ZDWUr367N7I67ZYCZEesDIzJYrA8AozfMUe9rv5N+/ytPHTpmoMEYT1nbOjUBAM6QWB8YkTFeIwHAcTjqwUTZeAGA7MT6wIi4RgJgPhz1YKJsvABAdmJ9YERcIwEwH456MFE2XgAgO7E+MCKukQCYD0c9mCgbLwCQnVgfGBHXSADMh6MeTJSNFwDITqwPjMj6GmlCr9wLDIAJy34U8/I65Sv3Bjek7AvTy8sr+cq9bwA4KbE+MCLZTwSdOAJwMtmPYl5ep3zl3uCGlH1henl5JV+59w0AJyXWB0bE2RgAACPnlBUAyE6sD4yIayQAAEbOKSsAkJ1YHxgR10gAAIycU1YAIDuxPjAirpEAABg5p6wAQHZifWBEXCMBADByTlkBgOzE+sCIuEYCAGDknLICANmJ9YERcY0EAMDIOWUFALIT6wMj4hoJAICRc8oKAGQn1gdGxDUSAAAj55QVAMhOrA+MiGskAABGzikrAJCdWB8YkUOvkW6uLrpc3WwHvr2+vLi8vq2NZPl+MFgWizJsitY8S5fXN8uSBrN2Hf+9GqY+fwAAHEKsDzALi8vxPtFAz8FyWRSvMRm4vb5cFj05B+swIvXVlhkus4x1tNIZTrSVji5ifWBEhr5G2hyiqmpR+eIoUr7XdkhZHpf2PV7vdrTa3nQIj5eNs5Me7+31laMjAMDQxPoA89DUGDCWaIw3opi/NYmIY/1+QfwOsX7inzsVrz7yEwUyUyHWB0ZkgGuk1gb7xQEgSMI3B6R+99dPehRZFWldrvpclaNqCv4bbgIAAHAQsT7Aebqt/QK++Uq8NL7W+t3zsZmVWqzf2KNB98ji2OLqRqx/fGJ9YESGifWjfnbKP+JD7fqvqLOb8cT6QWGKWD+cbOV3beE8FpNoOW4CALA/sT7Aeeq4jA4/bs66x3Qh3hVh9Ir1KzbxfXq0Qe4h1j8+sT4wIidprZ86+l5eX19V37kNx7Y5dKyPIuUY4vsE9YN4OeRqCqkzgGjM65FsmuevPulorV8Mtx1J6gcJAAAMR6wPcJ6i+LkeBFdi/WTCvMeVeDVnCEdQZAHhm70fCBjPQqJoUTySeFxfLQpfzfYyprhOzn/Ya1HvWD8Z3ESfnTqQCf/cDJRaEfWJVkp49FBGrA+MyAlb6zd9GgwVHpBurlf/WO+dg0i9+PwqaF6/eTc61K729/X3i2msxxwUcHPca22tHx4ANz+g6zoIAwBwGLE+wNnrat09YGv9KGcIAoPVv8q3r2+iL3TH+tVZSMf6lRTi6qpM4Kshyra1fLXzg3CKZRAejHuf1vo5A5nwz82K3nwWTLVxoqkSHolYHxiRoWP99B/1w++qG7iifX4Y69fvBAS75fQvwLZHpeqn2/drDeyLZ9M099KXbq2/KPPikLu5GzGNLv4AACZPrA9wjnr1SL+9bh+4tX61hX7RZHzvudmGyg09GhTpSLVx4U3xVu3DINte/6uSya8jinU3+6s264fG+rkCmejP+LNkeYs3+5RwSGJ9YERO9sjclcrzZWuxfjC2dE/28WGtOqH6nfHyKFI/Laju7zcFio9+9WPhdh7E+gAAJyLWBzhrteg2kc8O3Fq/kgZsWvft3dZ7U7r4+62d8JR96we9AzS0eQyThqil+uqmQNmE/uKQWP8uYyAT/VmL9ct7GrW4qbGERyLWB0ZkgGukaL8ZHbXi59CuD1bL/uDiA1YqCY9/BJfYR0f3e7d/xDeBy0NB5f1UuctyBOXaHl5vwjvmYaxffzzAtVgfAGBoYn2A8xV3urKUvoYPHPhku4aG5Z2TbSvQurV8Z6xfPis3fnLuxdVVNUBJ38jYfrBqoh/1zFN5EEH1TkFlZjsWz4kDmR6xfnKiYn1gzoa5Rtp2QNdweCj2rMGRq3zaSxT+h7emex5Fgj7Ywo7Uwh7Wog7Wtrl8ZX9f9FUX9fhfNuEPStbcWv/4xxAAgPkR6wOcvbAtduWyurWPgIbvtIk7dm/oHX73vvV7xPrbQdbBQhmhNHUSXC6ApqmHHSFEvdHUeyMoxpWeUs5AZrdYP5ioWB+YscGukcrbyC2Hott0ll99TEp4SO7+zde60Xy0d9+MIDxaNT0wPRjz+r5EeOc8OkIGR9vGGT3kN3sAAKSJ9QHO3uai/eom+FfzsE3JdK9Ud50GBKHCbfRRw7sDxPpxm8egrf66rX9jntId69dj8koLxXBcDVPJF8js2AlPMFGxPjBjB14j1ffNiQ7vivu2F8Et8HQncdlUe7TbNNwPZ2xz5zrZWr9cDvlnBQDg3Ij1Ac5TPUkura6z05fYzZ3wRE3D26Z6hGv3VaJQ7as3sPwweP7v1VXQtjAofqJknbF+bYDtgi3vkrQTZfQj1gdGxDUSAAAj55QVgL76dR4vx2YPYn1gRFwjAQAwck5ZARiOWJ89ifWBEXGNBADAyA1/yvrMD999++tDjhAAOHdifWBExPoAAIzcwKesX3nq7le+4+4zP7PDV5q6dOjRY7EGodNV7ay6+vDJ2kPFav1od/TvfTLlnBTz0O8JoJ1qjwhtLEHLYPHzMeP3R7EFVXcAfef6yBp6Yd9IPL11gIV584UXf+MTt08/+OqhI4JpEusDIyLWBwBg5AY+Zf3oa5ex/nv+5C4N9ht6bOjKyQbJ0U6ou0fqlUP6r+g5icHtVeYobu4sedPa3nXSRVjb9MWdl2FQsriQ7blwL41zF6fKUaxfFqJ2Y2zzBNHu+yKnrITVNXvy7bptITcVpVz+2+IeWOznPv+VV1986Lvf8IHvffNHXvXGJ1957/rDn/ry/qODaRLrAyMi1gcAYOSGPGVdN9Vfv1oa7Hc3w6/Ggrni6kGJ9Zd6/AZjFYb3/a1G9lg/iHOrPzjYWdcvFMr57hXrRx9s3u6XPp+qEsZrefW1yoo/tD43/VahMsjVTb9lvxlVPdU/KNZ/6rMPv/sNH3jyky882vrE5x6++uJD95/70p5jhGkS6wMjsr5G8jr9K/eaBwCYjENPnx59+e72/Xe/94t3v31xd/09Zaz/vj+1fOfB5fLTb3wx+kpHALaNzHZP/8dNrL+Lrjbc27/3nvRAsX6fNHjndVLPohNdFvWJ9bd/JWLozgKcKNaPb0HE8zVAdzy9Y/1UkYIhqpWvDPMPXeEvf/MPX33xoY9/+g8exX73hRdf8fr7X3/07ewX115e+736bwUFsT4wItl3o7N95V7zAACTcdDp01eeuvsPf6yM8pte7/ojd7//7vJbPWP9cujulKxfP+H1DkiqDXW73r+LctyyR/Vw4LC04Riu0zNSFCo9tmqvLi3liSfRVM71SNKdHtVGnu6ypTZkS5nTxYiErc+rcXUxyKrSVJdVy5qKe8CJc9ja/YAeq6mH1h7uDxlbYhNov5tQzGDVavYq79ze5auElVj/6iqO8YvaEH5rM65Uda1OLgzdw4oRv1O5h1FfjZVUfz2VTa1t6IBpB0999uGr3vjko5S/8c9/650f+/3sF9deXvu99tgcxPrAiOy9LwMAgNM49JS1M9mvZPobzbFkrZVymBE25aZ9Yv2bqyCBuyjjwjjfCyPRhveDgHIbRZcDl+OOC7VKE2vFD9sS31zXixSMrbn8iUm0lLOxF/Fgdq+3fbM3TLE6ZJ8lEBaj1pq8IdbvoWlN9Y/1e6ymXtINt3eNertb/ydK19Ja/66ywBNdwWeshIkOg8K3olh/+63NEgqeH9AyuWpr/abyh0us/Yciq6Gvtr+BaG/l38vj7/3cj7z12UePHv27d3/iX/6rD61fi38v3vmJX/7Um9/xaakC8yHWB0bEARgAgJEb4JS1JdlPZ/q9tWacBzSNLm4WVLvo2Ia+De/HWfE2DowHjuLiSlqYjPXrIWxqbMnyN02iTzmr02zPJJum2Frm5mLUku9KrN+/o/OmNdg71k8vw516Wt/M3dX19VWlrfnuSW+/+xq1X7RUFkFDc/3VI3OL9vnRbxXyVMJE3/qVTD6xndZG0TK5lkof7QSqPRyFdxvi769uDCQy/L1j/d/4xO33vvkjydb6jz3+7Nvuf0GqwHyI9YERcQAGAGDkhjllDR+WG74+/wv1Yfs8NDUZxO3ckrt1usnovSnr3fxdL/o2WU4EivU8sLUTnnSXIMFfifI3TaJPOStlaO0fqHmKtVJWlkC6GLu31m/s4KZpDfaO9Xuupg7FA2mjae4xogFj/WDgevv3Wg/8WSphorV+WMyi5NG36ncGok554p1IrbV+907grnk/EJe7eU+2y4p/+LVvvfLe9e++8GIl03/x5W++4vX3n3/4DakC8yHWB0bEARgAgJEb5pT1xU+mY/3f+8UeX+7bzvWgWD+KeZMdrG8+aGuBHGfFQbmaQu1K5x3NxY/7+ekaW7pJejmJPuVsXDjJNxumuNMSCGe1mq0mYv2OBvNBdyvdbcXbY/3+q6lBUOryNsV+PyfptzH0jPWLXx5cXZfPoS6WQ206p6+ETbF+OfBOsX5iyUUD99sJBAujaR0O2Vp/4Zc++MW/8lMfe+Hhy2Gm/9jjz/7sux/cSRWYE7E+MCIOwAAAjNwwp6xf/LfpWP+T/7DpG7dlH+1BEnoRR3CdWvoRqQgSvaCj7lpP31Gf+/X3w27Gi9CxqWlzOHBDSFi27m7ouyeVqAaFa5pEj3LW10ZZlOvmKaaG7LUEwmL0aq0fZrqVPlmCDLV1DSaGqYe5PVZTu+rtpqB7+YruBvw9b131ifXDGrXJvZfpfpn4lwstWyXsiPWLj3vE+unJNcb6lSqdCOkvVl3op9fkwLH+wtvuf+GV967/5//7Ez/xy596w9s+ufj3OtO/kyowJ2J9YEQcgAEAGLlhTlk/9U83Of5HX7vsTP8TP1r+WbPO6+OOMeIIsfm5rk2RZ3esH9wnuLy+jrPd4JOg++7U++FounssCRucr8ZWL340RPvYUuVvmURXOZOLMJ7b9BQTQzYvgXQx6rF+8N3dY/1gTdVqUrX4qTba3aupRTD8ZjzFwwGq4xks1e/6JUO8mm/TWX6ck+ephPG9u+qsl8P2ifWTkyvfLG81VMufqq9xDa0t0uFj/YXnH37j53/t829+x6d/9t0PHrzwcvG+VIH5EOsDI+IADADAyA1zyvrxv3n3m3/h7vb95Ttf+53lm+//s61fq3bp3e6gTngaR5kM49oTcA4RttsuV36RDCcbXAex/vXVDlXm6NZhbpDnh7bzVIbfHaU+PBqujCWKtKP7KcNM6lCp1vrhLYsTruXNZBsXSnQ38iixfhOpAvMh1gdGxAEYAICRG+aU9Wu/k37/K08dOubjEusDoyZVYD7E+sCIOAADADBy8z5lFesDozbvXTTzItYHRsQBGACAkXPKCjBadtHMh1gfGJEBDsBlB4yJxyIluxqMnyAEAABtZEYAozWBXfSuz5k+SPxY7a545NSl4zBifWBEho7144PR9plCqe/4yTAAAL1MIDMCmKvDdtHLR/0eOxw4bW4ex/qJfx5SvEOylNy3D8KbHJPNg8T6wIgceI20PAKXd55vmlrrJ5rx17g7DQBAklgfYLTGGev3SSEGjyHChGQ5W2L90qLkRcGXy2miEZBYHxiRU7fWX+y9y0NQy3ENAAA21qesXl5eXl6jfeU+UDQ6eV8BQXou1m8w3Q4cxPrAiAxwAF4dna6v1neiW29+J27Dj+i4AgDAOGWPq7y8vLy82l/77uDDmCCMFIKgoGgDH8QJq0H7BMNx5pDoKHidMEfTKP5IFSKKMBJDhs8S7B3rV0Xt2sN31qUtF1SwCJIlLIdcxTbFJ8Gijsa8Hsnirb0XS6WE6Zk+RddLxyHWB0bksAPwUrHX7zHc1XV8JFsdYK8nuz8HAOAUDj9lBeBIBor146C+6KYlTMlvrqPwvF8OUWlrmIz1t6PahNGb8QZdxdxcbadVvrkauAyzr8svFUF40PHMPq31E/O+LmFRqrIAjSUM3068X0wjXA4HL5ZUCaMZnmz7TrE+MCKHHYBXt2E3UX1zz3WLT8tfWAW98BRvTvf3VwAAHJ9YH2C0hon1a+23N2F372b5DeNejiPRHL6MqcPsPP4jnbdv30znGDdXl1dXy4jkZtOjwaGxfmUacQGbypAu4fb9eFFvh4rHvPdi6Sph5e7B5Ij1gREZ4BopcXSKetCv2n6o/x0AAPoQ6wOM1mCxfvVRfRdl48CW/lyabFoedj3/Lw6ea/l1pQhxlzSpcV1e35QRSdyscZ++9avzHsfkwV89ShjG+rW2mNUAft/F0lzC6Uf6S2J9YEQGjfWLO9HRvj1573j3YzIAADMl1gcYreO21i/s2Gx/21p+iFg/Kltjge82ndJEEUnY4H2bqde/1ZWOlPPeEJr3KWExb+mO7XeP9ZMTbb/xMO1If0msD4zIkLF+uadvba3f8egUAACIiPUBRutofetvAutaN753taGbDB/rBw3OoyIUfesHE43i+tui9+JaCRpj/cS8d8f6QQnDPuzDLu+jvu23zTMPivUriyVRwkofP5Ml1gdGZMBYf5Xlrw8P1+lYf9NKP37K/Tns2AEAOCKxPsBoDRTr3wVtAMOf/QdvVlLnk8X6QY8Eq7gjUeC4V/p0pzabd2ulbm6tX5/37k54ohJGIwinU3axkO7eZ//F0hLrV0yy6b5YHxiRA6+R1jvx9eNgEseH7b46fm56bLtzF+8DAJAk1gcYrRHvoldZ+nX6gblHiyHWAX6tD4Nt9LF4t+ERvmcQep8/sT4wIiM+AAMAwJJTVoDRsotmPsT6wIg4AAMAMHJOWQFGyy6a+RDrAyPiAAwAwMg5ZQUYLbto5kOsD4yIAzAAACPnlBVgtOyimQ+xPjAiDsAAAIycU1aA0bKLZj7E+sCIOAADADByTlkBRssumvkQ6wMjsj4AT+iVe4EBAHBqzgMBRit7SuB13q/cFTwi1gdGJPsOetI7dAAATsB5IMBoZU8JvM77lbuCR8T6AAAA0NcIL+wBgLkR6wMAAEBfYn0AIDuxPgAAAPQl1gcAshPrAwAAQF9ifQAgO7E+AAAA9CXWBwCyE+sDAABAX2J9ACA7sT4AAAD0JdYHALIT6wMAAEBfYn0AIDuxPgAAAPQl1gcAshPrAwAAQF9ifQAgO7E+AAAA9DVwrH9zdXF5fZt8v8vVzc5Tu72+3Hxr8a/kdKMytQ0UD99SlsVIwlmMZmz1/nKAaJ6Sk725KsqUXAhhIaoLted8sFEsy+1Cb1jHjZXU0gY4PrE+AAAA9DV0a/1lTJ0Ixduj8u7PGye2/lZ7ql9+1FC6PmWp5O/bFL4cePuvolCbNxrudGyKUt6Z2H4h/G+yPP2WVa9ZbdB0c+bYDilzix1i/dTUwwqUXa5VA3B0Yn0AAADo69BYv7sZfjWFHCCY3Kb420y8ZZQd5SsC+O6B4psH239vo+AyEo5j/frdgLKky7z4ZjX0+juJWD8u2XaKbYs3WEZi/WhhLe/BTL61vlgfOFtifQAAAOhrgFi/LYgN0u8Ou4SVcayfbEcfdHFTlq+pUX88E3Hr7Opnm7Q9zocrgX+ZJF9VF8/mm8UIbjtj/aAx/+I78Sy0/EpBrF9oa60fLkGt9QEyEusDAABAXyeK9cuhu0PJShbfMtZVGr66YxD1sxO2rr+6SmT+ZfvtxEzUi7z8LHnvYDHZ66JJfjDVbd88y1FdXpYD35YjX5Z6M94dYv3F3DT1sl/cOCl/NBD9WCC+N1G/l1IOuZqp1F2KaMzrkaT7W6qNPDnF+pAtZa4Xo78g1o9vt2xXQp9HPxSlrM9Ltdhd77cs1eL9cDk1rRqAsyLWBwAAgL6G6Fs/HXlXw8k41O9oZ94/1l8GtNdRB/Vl0L1u3b5ba/31zJTf6bhvEUbGcY5daQ2+LldQgvU/d22tXyts8ZjeYravg2fxBlF0uViCuxmpXzUE90nC94tpVJdQvGLCVPt6+9SBhilWh2wqc7IY/S2X2CrHj1rr1+ahqeF+VAMa5yUK84unLDS/n16q7fMerhqAcyPWBwAAgL6GfmRus+bwf+eostq3fpC8VlP41qnWW+tvuoEJYtW+sX7cH8+mSfeq7/yGWL8oXzLQb+5bP0y2w1i/HlLHv2FIdyZffD38dPt+0Zo9GkdzsN7diU7TFFvLnC5GT5sKsBlRW9/6LVUlOb3iRk51gQS/xEi932epFjPZtGoAzo5YHwAAAPo6MNbv03tJMoZsaa3frRbrhw/PraXbvVvrh23ai6Q8jvxrYW8wwaLh/TrWL1rrh8vhNvpdwbrXldV/lh/2a60fzkkwuu2aiHuACeY8uPGRmIlouYSxfn1dNufqDZlzjynWSnlXifV7VKl0icKV0Rnr92mtX8/7qwskTOoT7/dZquG8J1cNwNkR6wMAAEBfQ7fW72jcXjg01o9y1e2Er6LMs7WhfpQPF23rb6uT2XSenyhyPXevtNavdMJTFCnRoX+U1faK9cvx1dvop7LmdMv37R9x+/Gy4Xjl/cRMxJLD95licswNrfV31xrrlyuoR6yfnJfGFvUN7x8y73t0QQQwEWJ9AAAA6GuQWD/oKD16wmyYknYLWr13xLjbZvVhqt3S4/vm01X/6lep1s5t9yJSAXDw/uZuQtR0OxHrB0+HvSka2pfd/NQfhdov1t9+XPb43tB7SyomDpZY+DuFcNVVf7+QTLErizlYj9fNU0wN2fgLg2QxtgugO+WuxPq3mycyRL02ddbQ6n2O6rxE0X/Y5379/R5LNT3vla0K4KyI9QEAAKCvQTrhST0rdqn94ar7PzI3GLLspaXsNib6bhCFpm85VAtdn8OenfCEM7ZNiZdP8611ph+m+mVQHDfEbutbP5q3Wl8/QWnbO+FZ3UtIzNzy0bKpOzLp7n0S66Ra2vQUE0M2ljlVjM27PULu7TraTvAq6FqpoR421ojUvKwLGnwS9OOUej85O83z3rhqAM6KWB8AAAD6Gq4Tnmrn7u0O6oQnGMmqqXxlTJtsv88thyjvv6uNJMzJOzvhCb8WP/w0tpnkOvyPir66TVHcEbipFHnbWj8c47wj3u5KFD4w967xbkWf7ppalnXTfY72+x8ARMT6AAAA0NfQfevD3Ij1AQYg1gcAAIC+xPpwGLE+wADE+gAAANCXWB8AyE6sDwAAAH2J9QGA7MT6AAAA0JdYHwDITqwPAAAAfYn1AYDsxPoAAADQ1zrW9/LyOr9X7r0LwA7E+gAAANBX9uTRy8vrSK/cexeAHYj1AQAAoC/xHwCQnVgfAAAA+hLrAwDZifUBAACgL7E+AJCdWB8AAAD6EusDANmJ9QEAAKAvsT4AkJ1YHwAAAPoS6wMA2Yn1AQAAoC+xPgCQnVgfAAAA+hLrAwDZifUBAACgL7E+AJCdWB8AAAD6GjzW/+qPPPbtl14ccIQAwNkT6wMAAEBfw8b6jz7w61/+gde+9OaL9sFuri5aXV7f9p1i16hWrm62g99eX+4w8rbJto5mUapymuvJRn8DABGxPgAAAPQ1bKz/ldf97S//wGsf/sBr2hvsV1PvyEHJ+2LMbV/uGvfi85Z7AvF0Wu9FLEdUvNFRKABArA8AAAB9DRjrr5vqr1/tDfYrsX78Zxm9d7TET+Xt7Ql6KrVv+4VA89jSrfV3/OkAALAh1gcAAIC+Doz1v/U7n/nGv//ll/63f/LiG/+XL/83ryli/S//wGu++vr/6cWLf7T49FvPPlP51jrHb2gaf7zW+tHtg+7JtI2roxMeAGAnYn0AAADo65BYf9U8P4zyG15/7bUv/+u3h1/s2Vp/D8so/vIy2Sa+ktL36Y+n2j9+cxP87ahqAy1HsZ3UUB37A8DZEesDAABAXwe21n/0gV9/2J7s1zL9u02On+6x5vL65sBYf5mkr8cdpvK1SL0jY6831W/+QvBJ/Gzczf0KsT4AdBDrAwAAQF+H963/rWefibvf6cj07070yNx1w/nG6bROJnribecX4lhfa30A2JlYHwAAAPoa5JG5y2Q/Fet/7V+8JTn8tmf6aoP9w8PvaiP77d+9HmZbfDOV6vfuhEdrfQDYmVgfAAAA+hok1v/mRz+UjvX/z59LDV7E28ln2B7vkbnpQiQ/avk1QddYtdYHgJ2J9QEAAKCvQWL9l/+fn0/G+i++4R+kBi/S/OO31m/W2qdOaiSVpvdB+B/cndBaHwD2IdYHAACAvgaJ9V+8+EfrHP8rr/vbL//rt3/lh19X/FkfOGgLn+xjfxN+9+k2px6SDxHrbx6721ToVJxf/CsZ63dPEgBmTqwPAAAAfQ0S63/lf/jvHv7QX//Gr76reOdbzz6zfPOv/9X6wNuO9avK/msOyL4H6YQnOdqot6B6M/2yYf7qne3MlA37D50zADhnYn0AAADoa6hH5ibff/SBXz9wzADAHIj1AQAAoK9BYn0AgEOI9QEAAKAvsT4AkJ1YHwAAAPoS6wMA2Yn1AQAAoC+xPgCQnVgfAAAA+hLrAwDZifUBAACgr3Ws7zW2V+56AQAnJdYHAACAvrLn117JV+56AQAnJdYHAACAvoTIAEB2Yn0AAADoS6wPAGQn1gcAAIC+xPoAQHZifQAAAOhLrA8AZCfWBwAAgL7E+gBAdmJ9AAAA6EusDwBkJ9YHAACAvsT6AEB2Yn0AAADoS6wPAGQn1gcAAIC+xPoAQHZifQAAAOhLrD8rN1cXVzd3t9eXF5fXt7kLAwAFsT4AAAD0NUCsvwyJl2Fx9E4yNV4OWQzYNNAe1mF164eL/9Y1f2lCooXaZRPr3962L7PNSt13KS2+3PWlePLBFzrKdRxB7Qjq5PLduCxlOZP16XwqFcDpifUBAACgr4Nj/Xq+eXl5WXljk5TGQf6JYv3NZzdX1YllyY8PsihxconV4+eNIJtvzaBTGXU5wuVNgN0U6Xe6AMVEw1s8J4r122+ChHVy9ZOGy+rQqe8PWJMB5kusDwAAAH0dGOsvA+FVpLmJltc57jpHv6iE0Kv086Ypad4py21uK10d3TYlPqdYv3vuL4pUvTLX6Xb09YVzQBGbVmq9MKvJNt162KdEPToXaor114sgao2/HlPtXkpyoYr1AQ4l1gcAAIC+Dm2t3ztirrUpHyoMvVlYJvQLtc/KEPfMYv3Wkheft8X6Yb49XKxfnUr8ZuNUBmqtf3CsX/y0I6qqjb+GKMcp1gc4lFgfAAAA+hog1u8VMcfN+Adrm70eZ9h9fuXOQVs/M5Xe3Xv8YqAcS9Cx0OJrZZPzrvfvop5pooi9eD9cGOEYrveI9SuzWyTQUbzdeW9mx6C9M9bfTDDs8CYd67csxuq6CGeiOqHm9VKugW1XTcvfk1xdV35DsOyN5/Lq6rLynWJZivUBDiXWBwAAgL4GeGRuYxfuQffsiX7K9w9Dq6FwFAVvg9xVdltOs2iQXgxbz4+70uubqyB7vijj8Tg0Dm9jNLwfpPmrIaKBg96LokKtZqyeV9eVyyVYxNsYfzPX8cI/Smv9atP56vqu9GPfHOunFmNyXVRa66+GLr96fVMbYfnV5D2BpLJ80S2Sfl8GoJFYHwAAAPoaKNavp5lRPLsKYZfvVFtB9w1Tk2qt1uN4+ub6+rbesH2YvneKHter4fW2w5aG9+P+XLZZez2OLm4BhGVtemRuoyAtDyZV/LwhGPGQaXTtrktRgkSs33J7omUxVqeXivXT3e00LOpwZOsbQmWXPLUfGmitD3AEYn0AAADo6zSt9VcqWXKltfYuwWg1Cy66R6lNe5vSNmbHB0w2Gb2HSX3i/XqKvXlSayLsr8X4Ozwyt2iDHsT6Ybv0VLv5hsW0U2K9jt179a3fsP5TnfDUF2/62bxRZp++CdKwqIteoq6ugr6KUj9tEOsDHIdYHwAAAPo6Wmv9upZYf58m9NsUutIvTVySWrP0ZW57eXm1RwobNRQv/mhqUd/wfvrpq82xfjXirizncvZSS7CyhOs/LyifEFvvmKc+iv52jPWr/fy3xPqpxVj+UY31+y7q4HvxIgnb7kflW/78RKwPMCSxPvD/t3cHv65ch2GHu+yyyyy7rFfWzt2pO++CrIL+BUYXCVAvJBTe3IUFFNmkCwMhoCBpAC0CBDYbpChUNCkMy1SjOHaEBHoWC6mOLCuwDd3ETxEs2y8xbkkOZ+acOefMHF7OJXnF7wMhvTcczgx553Hxm3PPAAAAtR5ytP7NzTDJJll/tcysWGGXd1ftnXKX66bhtnc8Lc66366edufpufWDTHzb3f83/ONdOud+ujyYCb7P36Uh5OHK8SzzybsbzHm0j9/JjDT7H1WUo4MrEZNZv24eoKqsv99UZpqdZG795GPM/yxyc+v3v63Qz62fHa0/2H00KH9wFu/PV1kfYE6yPgAAANR6yNH6aRCdvGVu1bD9QXoNM/hwRHq7arpkEKins34w8UtzOSIo8sEzUUdPl4ebiZJ9vjUHV0x2WytE6/iDazYwnFqnn9m/3UFwnWOwr9IkPJWz+09n/d2RLLPj6Ycvyn+MuZ9Fvzi+FlL3UacH2W4xOwuQSXgA5iXrAwAAQK0zj9ZPY2g0nH3cxC1zu1WGU7YMbyN7jNI25tj2yC7TzyiebH6X65Oh/XH5H642PVq/ol+n98tNr2IEP6ix2wTkblHwYLpzuPl9j4nLG3PdrQGAjqwPAAAAtebI+nOrHBN+Ec6Q9a+JjxHgWsj6AAAAUOsSs/5jIus/KB8jwLWQ9QEAAKCWrA8AnJ2sDwAAALVkfQDg7GR9AAAAqCXrAwBnJ+sDAABALVkfADg7WR8AAABqNVnfw8PjlI9z/7sHuDiyPgAAANQ6e9/08LjCx7n/3QNcHFkfAAAAaomMAMDZyfoAAABQS9YHAM5O1gcAAIBasj4AcHayPgAAANSS9QGAs5P1AQAAoJasDwCcnawPAAAAtWR9AODsZH0AAACoJesDAGcn6wMAAEAtWR8AODtZHwAAAGrJ+gDA2cn6AAAAUEvWBwDOTtYHAACAWrI+8IDWy5vF6vawF9zcLNe5pRNG93O7WuxX2297s6DmwAarbY4jOTZgFrI+AAAA1JL1gQczUeOTrr6L78vlMhP2a/X9fnJXzbL8C9r1o6w/WFXghznJ+gAAAFBL1gceRtPo69N3sP72j4MQvx8nn14o2K23XgYdPt5nsqBbHO0h/LWC/Z+DfW23cLtaRoFf1YdZyfoAAABQS9YHHkKaxmODKJ7MvTMs+33W363V/z+T9Vf5EfvdjgcHtd9Cv/vgz1397/dgKh54ELI+AAAA1JL1gYfTjYGPh7dHXbyZ2ibXycPWf4LR+iNZv3ZqH+DeZH0AAACoJesDDyaK+cE0N303Xw/n0R/eY7edmueQ0frZ/D/o8PVZf/+ybhfpH4AZyPoAAABQS9YHHkBhePv0aPdh1g+WH5j1kzH6w9vfhvuJ/hr/ZsAg4vdryvowJ1kfAAAAasn6wEMJWnk0bn84Uj40nfXHJ+EZ5P9wEp5C1l+vmnsAZA8vjfiyPjwMWR8AAABqyfrAQ4mHzPfB/risP5izJ8767aajaX7KWb+dAyjaa5r1x373wM1zYR6yPgAAANSS9YEHMjkRT+E2uWNZvyCY7z6epCe8Ie8w63cT7Awm+M+P1g+Ob7GS8mF2sj4AAADUkvWBU7vnaP3pafqjqX72r2kH7w+uI8Tdf3jX3tKEPMHmjNKHecn6AAAAUEvWB04kGL1fbuKlrD+uGa2/b/DdFYBkL9tnoq1vDymYlT8+vGZBPwdPMmzfHDwwI1kfAAAAasn6AMDZyfoAAABQS9YHAM5O1gcAAIBasj4AcHayPgAAANSS9QGAs5P1AQAAoJasDwCcnawPAAAAtWR9AODsZH0AAACoJesDJc33g8fxj3P/JOERkPUBAACgluQElJy9hn9qHuf+ScIjIOsDAABALckJKPH9AJyMrA8AAAC1ZDugxPcDcDKyPgAAANSS7YAS3w/Aycj6AAAAUEu2A0p8PwAnI+sDAABALdkOKPH9AJyMrA8AAAC1ZDugxPcDcDKyPgAAANSS7YAS3w/Aycj6AAAAUEu2A0p8PwAnI+sDAABALdkOKPH9AJyMrA8AAAC1ZDugxPcDcDKyPgAAANSS7YCSGb4fbleLxep29Pmb5TpZvF4uVuvVYvDMenkTbWxq44UVtvvs9fu43e1ws5PMAXVPAw9E1gcAAIBasj5QcvT3Q5fV45Leyj63Xbit+tun2v83hsG9GODD/Sc7bV+SvnrX7W9vb7Pbnd4ZcBRZHwAAAGrJ+kDJsd8PcZXfmRhg3w2YH+b/eNFuE4O1cpsd21vb6fNXHOLNDX5NIPO+gGPJ+gAAAFBL1gdKjvt+WC+7bN5X8GFo3xfyfnj+zXK17ey7lwYj5MPB8ruV4w0Ffytk+qTVF0br595Heslgcvof4FCyPgAAANSS9YGSY74fgroetvKkh+8n12+S+vbZ5XJxM5n1NyuVZtkvFvf+ibD8B5vqV+iG48fXJIa/IWBWHpiRrA8AAAC1ZH2gZL659UeWtIPkm1h/s9iG/XR6nWS0flz6jxutv9/gvuH3d/EdTgY0DPnm24cZyfoAAABQS9YHSo78fshNajMye80uokej9OPR+mme78fSHzZav91if3TtvD7FWfoLzLIPs5H1AQAAoJasD5Qc9f0QjZrPDasPV9w+30f6zM1wM6P1w+0FVxDuObd+87LtxP7x8aUj9rNbA44l6wMAAEAtWR8oOer7oR98H8pk/X1f3+f4Zj6e6VvmJpvNToczMk3O4FcBmtH6myWDl5S24Ka5MDNZHwAAAGrJ+kDJLN8Pu1zfFfC0hu+7efO/8L+HZP340sC4/Xb2w/DjW+a2uw13JuvDScj6AAAAUEvWB0qOn1s/maomqeFNNu8Xb5v9ajDxzeap7Nz60Z6Su9nuX7ZcR5m+O6401vdD/oPtmYQHTkTWBwAAgFqyPlByzPdD2O+Lg+h3Bb+p+hMT3+RG64ebHU7K30f55k9Bnc8Mvm+fzYR6o/XhRGR9AAAAqCXrAyW+H4CTkfUBAACglmwHlPh+AE5G1gcAAIBash1Q4vsBOBlZHwAAAGrJdsDG+oOPv/Hk9q/f+8dwoe8H4GRkfQAAAKgl28FMtjdwzd5c9bgtdAu3t3U9bvt5333/o+dv3vjsC9/8/Evf+tyXXn/uxdVfvPOT5infD8DJyPoAAABQS7aDmZwz629XWqxuD9/lm997+tkXvvn62x8+az35/tPnb9547bt/f+f7ATghWR8AAABqyXYwk4fO+lOvPDzrf/KLf37+5o3vvPsPz2I/+PDjz3zxtZ89+2Xz/eBx/OPAnwxcI1kfAAAAaklOcD/bwfM7bU5v+vv2v42gxfcLw6WFLQSv2P4lN1q/e2X3xM1gU1Xe/N7Tz33p9Wc5v/7bf/Un3/7x2Wv4p+Zx3LkGV0HWBwAAgFqSExxuF937GL9adwvbpdvUvv/jbnlQ63eLi1toS37X/5OsH47MX6/6fRw+Wv/lP/3+b/zeW8+ePfvjV5/8zh+80Tw2f94s+fJX33npa+/6fgBORtYHAACAWrIdHCw/L06c1gtT4u8Xl7ewXAdXBLIbiqJ/dt+1vvHk9vMvfSs7Wv8LL7/1ymsf+H4ATkbWBwAAgFqyHRxsvcw19DjVRzU+tnlteQvJTDpjk/B0K94v6z/96T899+LqBx9+PGj6H3/yi8988bUfPf257wfgZGR9AAAAqCXbwcHiAfitkayfrDy2hcFo/PKGghXvl/U3/ujPf/irv/XtD59+Ejb9L7z81ldefe/O9wNwQrI+AAAA1JLt4HCDye/jmfH7VZq/RZPqbBbvlo5vYTcaP5iOP8r662Uy7f79s/7GK6998NyLq9/8/Sdf/uo7L7zy9ubPTdO/8/0AnJCsDwAAALVkO7iXdsKc8Ma3+ax/F07EM5g0v7yF3Uu2T6Sj9fsXBvvb7+J+bf9HT3/+u3/2/ktfe/crr7733oefdMt9PwAnI+sDAABALdkOKPH9AJyMrA8AAAC1ZDugxPcDcDKyPgAAANSS7YAS3w/Aycj6AAAAUEu2A0p8PwAnI+sDAABALdkOKJnl+2G9DO7sm/l7fpWRe/9u7w4cP93cL7hbNnz57Wox2NxmyfAYuhVX3av7Ox2H2+tuXVxQ2DYwQdYHAACAWrI+UDLX90Of7fPBPi39mXbeRfbR6J7ZWuY6wi6+p0fS9v/BK8LLArvXLRbFsJ/dGVBB1gcAAIBasj5Qcuz3w7aBFwX1u23hQalP16yq9fEW2kafLNuvO+z6ybD+ZpV+/H13VaJ4eSJcmu4AKJP1AQAAoJasz3VqznyPmsf9P+V09ptW2+Sj8L9cZkp919Rrs363cFfV40PIdPvRyw5NmN9vdPAbBMNfKMiV/vIHAAzJ+gAAAFBL1uc6nb2VP6LH/T/l6ayf+1thKpyowG+eqMn6y+UiM8v+/lpCemjD491fUtjG/fXmNcvV4LcPtrPx7F4wnNInvlpgVh6oIesDAABALVmf6+TMrzFD1j9oEp67wRj43euDZ/qpcJqsP7BY3Saj9ePSH3T77Aw5g4XhLibu4Vt8b3eF3ysABmR9AAAAqCVucp2c+TVOOFp/V86Xy/RetN2amazf/b3bS2Zu/XAsfZL14wsP2VmAuj3uX9zt94AZdsyyD9NkfQAAAKglbnKdnPk1ZvyUtv08U8y7rN6V8uKw/vIkPHHWH47Wb/cT3/w2ejYs9fFBNge0z/1x14+r/sgk/Yo+VJH1AQAAoJa4yXVy5tc48lNahzH8Lryp7CCfp7PUpEuigfabJ4M71FZk/X4jcdZfr+J5eoJb+e5+d6A/8v1Nc7v/DcbqlybacdNcqCXrAwAAQC1xk+vkzK9x1KfUjs9PwvYuyK/D0fs1WT+9gW7Q8muzfjSJfz/nT7+4PdjCdYdoxegAZX04lqwPAAAAtcRNrpMzv8YRn1I/6c4wbHd/T8fI95Il6WT8/V+n5tbPHFQzu04w/H8wt098SSBt87njMwkPHEXWBwAAgFriJtfJmV9jnk8pmTB/MA6+Td/lMr5YrcLMPpynf2K0frj/4YrB7geH1M7F075unZv2P7oyYLQ+HEXWBwAAgFriJtfJmV/DpwScjKwPAAAAtWQ7rpMzv4ZPCTgZWR8AAABqyXZcJ2d+DZ8ScDKyPgAAANSS7bhOzvwaPiXgZGR9AAAAqCXbcZ2c+TV8SsDJyPoAAABQS7bjOjnza/iUgJOR9QEAAKCWbMd1cubXaD4lj5M9zv0Dh3OS9QEAAKCWlsR1cubXOHvmvrbHuX/gcE6yPgAAANTSkrhOzvwaPiXgZGR9AAAAqCXbcZ2c+TV8SsDJyPoAAABQS7bjOjnza/iUgJOR9QEAAKCWbMd1cubX8CkBJyPrAwAAQC3ZjuvkzK/hUwJORtYHAACAWrId18mZX8OnBJyMrA8AAAC1ZDuukzO/hk8JOBlZHwAAAGrJdlwnZ34NnxJwMrI+AAAA1JLtuE7O/Bo+JeBkZH0AAACoJdtxnZz5NXxKwMnI+gAAAFBLtuM6OfNrPOCntF7eLNftX25Xi8Xq9jx7SZduXjRcb7Nowv4VVVsDcmR9AAAAqCVucp2c+TXm+pR2Vbzv63eD3n53ZPy+XS3auh5ttGYvQYfPtvt4/UG1TyL+YVsDQrI+AAAA1BI3uU7O/BrzfEr76h4G9qa3F8fAx3F+wnYr+xds9xSU84q9DK4I9Fl++0R6GBNZ/8CtASFZHwAAAGqJm1wnZ36NWT6lbVxfLqNW34+iH/Tue+Tvdbjp6PUVewmG8wdJvjzCfjzrH7o1ICTrAwAAQC1xk+vkzK8xw6fUzHsTtffBlDx9G7/fTDzBtrd/jCbBmdjL7Wq5WHS5PTsvfnyRYTTrH7w1ICTrAwAAQC1xk+vkzK9x9KfUJvR4opyN0dlxDh7T3m2pe90Be+lqe3aE/WCmnhG1WwPyZH0AAACoJW5ynZz5NY78lPpx8eGI+tVu8P5sgTucT7//c91eouS/XB05Wv/grQEhWR8AAABqiZtcJ2d+jWM+pej2tevC3PrZofT3vWFuu9f2r5V7OWR8/WaVcEE60Y7R+nBvsj4AAADUEje5Ts78Gkd8SvmJa/rB+8kta/cOHdJemfVH9hKG+MVq3ZT6ZuHwhcOMP5H1J7YGRGR9AAAAqCVucp2c+TVm+5RGRusfmfWj2+TuriWkvb4i67fD8NvLAtnDSG7pW8r6VVsDYrI+AAAA1BI3uU7O/BqnyPrFmWrqW3iwlbCy10/C0/61P8xutp2u3IeXD1r5rF+zNSAh6wMAAEAtcZPr5Myv8VCfUv04+qSkz76X/RD8XY7P3/92N/o+eyBppa/Z2n3fD3zKyfoAAABQS9zkOjnza5z/U0rmvQE+rWR9AAAAqHX+bAfn4Myv4VMCTkbWBwAAgFqyHdfJmV/DpwScjKwPAAAAtWQ7rpMzv4ZPCTgZWR8AAABqyXZcJ2d+DZ8ScDKyPgAAANSS7bhOzvwaPiXgZGR9AAAAqCXbcZ2c+TWaT8nj9I9z/+ThDGR9AAAAqCUhcZ2c+TXOXrev9nHunzycgawPAAAAtSQkrpMzH+CiyPoAAABQa/64+Tf/4e6XP5tzg/AAZH2AiyLrAwAAQK2Z4+ZHb979939x9//+y8Rqt6vFzc1yHS9ZrG7za3Yrlla6h/Uy3n/myc1/U+UXZTfTCg57uzTeyuZt7Rdkd3nwfuew+wlldW+lfLDRqtOr9W9us267+eAHFJ0D97H+4ONvPLn96/f+MVwo6wNcFFkfAAAAas0cN//y17ZZ/3/9yuiA/TT0LhaDiNzG3Tjknyjr759bL4c7G70WUBYe9jZRb99tEvaTLc/4ZkcOrPSGCnsfOajdO6s54PE31pb99rPeniybBRvTW0599/2Pnr9547MvfPPzL33rc196/bkXV3/xzk+ap2R9gIsi6wMAAECtOeNmM1S/eZQH7O87bTdsvRkX3nT0m0EY3hXgdWng+EGJfXrQeLu5PigfnfWbTUSj8ZttBsPSg3ca7e3YrF+R2cezfuFjymyzW3m5Tn+GuU1n1jhkUH+lN7/39LMvfPP1tz981nry/afP37zx2nf//k7WB7gwsj4AAADUOjZuPvvJ3e3X7/7uD+/+783d6t/2Wf9//+vtkvcW22d//sPoJfUBdzhfzVwD2Nfr9a7QbyTP9al7tqzfjf6P3k06GU9yIOfN+jWj9fdBvx1X32wsXJh5WTHrj362h372n/zin5+/eeM77/7Ds9gPPvz4M1987WfPfinrA1wUWR8AAABqHRU3P3rz7n/+qz7llx7/41/e/fjV/lW1ATcexl8zanxSH5zD6fMHVw5uuqw/PmI8vUFAZnftbD7bXzlYrgZD4Lez8SyWy0W45S56Z8fvb9bqx9EPJuwPF4bHnk6GH0xxFG1w+Oaygsnv4x/C4OcafjzVWb9wyWez/qFZ/83vPf3cl15/lvPrv/1Xf/LtH8v6ABdF1gcAAIBax8bNybI/aPp7pWrcl9vcJPT3H8C+z8X9q8NK3LbkXeHu99mN1u/WjdPydNbPxvXSmpmsP3hxsyRs8t1xBRMItSvEo/V3a/cvXQXD6vt3ea9LJTUqsn57/OlT9/upv/yn3/+N33vr2bNnf/zqk9/5gzeax+bPmyVf/uo7L33tXVkf4KLI+gAAAFBrhrg5UvbzTf+ukGqjar5L1dslwyHutaU8KxnzHXfk9So3LPyed8odbmH/nsO5asKB9HWj9QfD45MD6yftj9bOT7eTlv/tOuWB+un1l5EJlYrXY4bbH76leX7S33hy+/mXvpUdrf+Fl9965bUPZH2AiyLrAwAAQK154mZ4s9zw8f5/LbxgerT+TjqvSxiqD4m9w17czX2TK9XhxDTHNeb9RELL5f7mwEHXj95AddYfTnPTzmqfvpGo2Se36M1ssDjT/shHnRtdH7+fdAt1P7ljr6U8/ek/Pffi6gcffjxo+h9/8ovPfPG1Hz39uawPcFFkfQAAAKg1T9z8+O181v+7Pyy8oDLKj9Th+2TfNtYPZpuPj2Sw4fVyG+UXi+XBA8aDrt7fNLf7X/wJtDPLB8uns/6+1UeD9vu/DLN+YbR+MetHVxpKFzbmzPoTvyVweOT/oz//4a/+1rc/fPpJ2PS/8PJbX3n1vbsZzvz4HhClT6j2AtH0zQwq7jWd/2Ekm24/ytFPPLrmVLfD4OJRcAKM3JgZICDrAwAAQK15sv4P/1s+67/9nwovGAmKg3Cd1OHVMrNihV1zXLU3Zl2um9Ld3s62OOt+u/r+9rfD91B3EO02o1Q+eKP7tzSR9fs9dnPhB8k+XCMzt34fWvu59QtZP5xp/0Sj9XMXOgrbq/bKax889+LqN3//yZe/+s4Lr7y9+XPT9O9mzPrDhSPzD4UGTxTWG/nsh3MyxccQ/CMpfrDljRd+lSTZUfLytuwHZ/x2wUb2PQD0ZH0AAACoNU/Wf+c/7zv+X/7adjL9J/+x/2veSNqdyvqjM/KXDLp6X7DbMtk30nAQdrxkMJNNfdZPjzt9Y9WT8HTRNjOcurnoEYb/m8E9dpMluazfvPV1+/5Gs35xIPc8Wb876HvfzfdHT3/+u3/2/ktfe/crr7733oefdMtnz/pJ0d+ZcbR+ZqPN6VA6uXLTPQ3H0VccXM1o/enfJDBiH5gg6wMAAECtebL+d/793f/5d3e3X++X/PRvtwu//m8KLzhitH5adzNls2TilrndKsOJbe45oUgQpdf5d1xXdpv1TjObSXKr3bGf0uRo/ar77+Z+esffp3jCMWd+GLHbeZAKhzvzaP395xn/7ke48C6b9fP/xGYcrT/143rwHyfw+Mn6AAAAUGuerP/Tv80v/+jNY7dcKX9L2E8Zk5TPab7R+vmR6qUbExSuZkyP1t/tJnxJ5lc+2ns3REcxw2j98mm3Pym76aoKm5L1gUmyPgAAANSaJ+tzCrL+nOadhKdN5/v/5yv2iX6Ah0zCUzNaf2KGnWjFdHuVd8cGkPUBAACglqzPdZon6+9vBtG16yaat3+tm3G+aqKibtajqTUOyPqzK4/Wf6AdAp8msj4AAADUkvW5TnNk/Zv+psrR3ZXDkF7K6IO7Qw+eKt+jeOJmBndp1k9iezcjf2Y2/mDKn+jwhsc0cXXApDvAwWR9AAAAqCXrc52OO/PD2zR3c+t06XuQ9SfH17crlubjD+e5r8r64S4G953I3QB6mPX72YIqft/gpnvzk+sAjJD1AQAAoJasz3U65swP4vq2ZnctP+jyw6Hu7Sj+dvj8MHMPrhPMMlo/Pr7cs/vtxVk/t/tkWTIcf2yqH2P3gQqyPgAAANRq4qaHx3U+jvznEw7Uz81u3w1iX65vb2/73N8ObQ+G5y9W63Ybo1n/oPHw4cWC9NjSZYWrBpnrEHVZvxvCb3p9YJKsDwAAALXO3lU9PM74mOdfUTibTVix46H8Sd5uank0nr44lU13y9zp0frpYbU7CzZVNbtOM3Q/G+XNrQ/MTdYHAAAAYMycWR+Ao8n6AAAAAIyR9QEuiqwPAAAAwBhZH+CiyPoAAAAAjJH1AS6KrA8AAADAGFkf4KLI+gAAAACMkfUBLoqsDwAAAMCYJut7XNrj3OcFcDayPgAAAABjzt6vPbKPc58XwNnI+gAAAACMEZEBLoqsDwAAAMAYWR/gosj6AAAAAIyR9QEuiqwPAAAAwBhZH+CiyPoAAAAAjJH1AS6KrA8AAADAGFkf4KLI+gAAAACMkfUBLoqsDwAAAMAYWR/gosj6AAAAAIyR9QEuiqwPAAAAwBhZH+CiyPoAAAAAjDk669+uFjd5i9Vts8p6WVgjXTXc6nJ9zyNoX1g+tNwu968Y2+vmjbRPZ95T7fECjJH1AQAAABgzR9bPFfLC4v1T+ager1Ks5GFR364U7ypI7+VjKD1TyvpJxO/WmrgQAHAoWR8AAACAMacYrZ9ZebnelvJojdGx9WFO78L9/g9jWf/w0fpj6wXb7l+g6gOzkvUBAAAAGHOq0fr7YL5r4F0dDxfGq1ZNhdNn/fxQ+vlG6+93Ff63uFeAo8j6AAAAAIw5wWj93Qw2I4Ped1sIZ7WZGF5/yCQ8h4/WPyDrB5swah+Yi6wPAAAAwJijs/68dsk+E8jDiH7IJDxTo/Wn7+bbHE8x6+97vqwPzEXWBwAAAGDMMVm/ejb8u9F+3vXwzTqL1aq04uFZ/17vqDhaf3DIsj7wMGR9AAAAAMbMOlq/PDz+br3MP9NX+P0a+Sw/Nlo/uWLQTdzfbih4RTAzUGE3i0Vhhp673Gj9/tKCrA/MQtYHAAAAYMwMWb8v5Mnw/T6PT2f9fsH0aP2w4O/G+Gcn7u/uvTvM+sWb8rZXD/a7GK4THmyzavsCWR+Yi6wPAAAAwJijs/62gLdZ/ajR+qUFyZajNbaFPtpy/Ppmt3HWHznKuM7vrlKklwyC1xfyP8D9yfoAAAAAjDku6zdRfb3N3+ks95GaufXbFSey/mCrg+W512cm4Sm+n7FEH1f8bueZowC4L1kfAAAAgDFHZP1ooHzx9rnxzPmJidH6/WYzL4/m0umvG7Tz7kxLtjme9YNrC7ftlYz0KYCjyPoAAAAAjJn1lrkAHEvWBwAAAGCMrA9wUWR9AAAAAMbI+gAXRdYHAAAAYIysD3BRZH0AAAAAxsj6ABdF1gcAAABgjKwPcFFkfQAAAADGNFnf42SPc//AgUsn6wMAAAAw5uyZ+9oe5/6BA5dO1gcAAABgjNYMcFFkfQAAAADGyPoAF0XWBwAAAGCMrA9wUWR9AAAAAMbI+gAXRdYHAAAAYIysD3BRZH0AAAAAxsj6ABdF1gcAAABgjKwPcFFkfQAAAADGyPoAF0XWBwAAAGCMrA9wUWR9AAAAAMbI+gAXRdYHAAAAYMw1Zv318uZmuS49e7taLFa38erltTPrl9cb3Q7AjqwPAAAAwJhHkvW7En9QHN+8Kl/cR7bSV/o258v6wCnJ+gAAAACMuYKsv33JtH2aT6u+rA+clKwPAAAAwJhHkvU7R4zWz+X5zeaiZf38PNs/FeP/YBMjWb8/hPbI5X1glKwPAAAAwJjjs37Xv4O4HQ6Q7xY3PbtbfZu2k9c26/Qvb5dnR+sHe+k7efjaVTwJz3o57O+Dqt+8dtjeB5cDagb/d/sJXttvcnxuf+DKyfoAAAAAjDku6+8Sd5/kV+tuYZettw27WaOP5l0b3681XCeM/N389oOsH+5l++fda6Jd764ZRCF/OF4//vtu08vdoij3338Snuip4EpBd7wACVkfAAAAgDFHZf3sfDLJWPR2HpooZsdlu5uqZhi8240lWT/ey37p8HiSW+ZGKwyfXS83T2Ua/njWj65sjL0w2reZeIASWR8AAACAMUdl/SSbZxe2BT7p2lHWz98RN6n44YJk4ps01CfHNzXDfZPi8xPr5ybX360/nKG/3VO08mCPZuIB8mR9AAAAAMYcm/UPHK1/aNZvXzsxWj+/68JcN/FEP+kmDhit3103SNdJJvIvXbEAiMj6AAAAAIyZYW79/p6wpbn1+/n0a7J+PDt+l80H3b9/7q6/9W24sFDvdwPxt1Po58v+AVk/vogwOfpexgeqyPoAAAAAjDku6991N7+NK3m/8CYu+XWj9bs5cLo1ssP5+6ly4hvTdjuOJuHZrz2YB+cm/dWCiqyfn1A/vUfv4Fm3yQWmyfoAAAAAjDk668/rIYa070t/cbNN3d8n9+ms3wz3Lx5j0vZzFx8AimR9AAAAAMZcQdYHeExkfQAAAADGyPoAF0XWBwAAAGDMhWV9gGsn6wMAAAAwRtYHuCiyPgAAAABjZH2AiyLrAwAAADBG1ge4KLI+AAAAAGOarO9xyY9znyPAScn6AAAAAIw5e7P2mHyc+xwBTkrWBwAAAACAR0PWBwAAAACAR0PWBwAAAACAR0PWBwAAAACAR0PWBwAAAACAR0PWBwAAAACAR0PWBwAAAACAR0PWBwAAAACAR0PWBwAAAACAR0PWBwAAAACAR0PWBwAAAACAR0PWBwAAAACAR0PWBwAAAACAR0PWBwAAAACAR0PWBwAAAACAR+P/A6Qve8mrdQGfAAAAAElFTkSuQmCC;" vertex="1" parent="1">
          <mxGeometry x="-350" y="160" width="2034" height="594" as="geometry" />
        </mxCell>
        <mxCell id="pMh_xQxpy7Jd_t1ipVND-4" value="" style="endArrow=none;dashed=1;html=1;dashPattern=1 3;strokeWidth=4;fillColor=#f8cecc;strokeColor=#FF0000;" edge="1" parent="1">
          <mxGeometry width="50" height="50" relative="1" as="geometry">
            <mxPoint x="-20" y="840" as="sourcePoint" />
            <mxPoint x="-10" y="40" as="targetPoint" />
          </mxGeometry>
        </mxCell>
        <mxCell id="pMh_xQxpy7Jd_t1ipVND-8" value="一个月前" style="text;html=1;strokeColor=#b85450;fillColor=#f8cecc;align=center;verticalAlign=middle;whiteSpace=wrap;rounded=0;fontSize=20;" vertex="1" parent="1">
          <mxGeometry x="-200" y="80" width="120" height="60" as="geometry" />
        </mxCell>
        <mxCell id="pMh_xQxpy7Jd_t1ipVND-10" value="外放当周" style="text;html=1;strokeColor=#b85450;fillColor=#f8cecc;align=center;verticalAlign=middle;whiteSpace=wrap;rounded=0;fontSize=20;" vertex="1" parent="1">
          <mxGeometry x="750" y="70" width="120" height="60" as="geometry" />
        </mxCell>
        <mxCell id="pMh_xQxpy7Jd_t1ipVND-12" value="" style="endArrow=none;dashed=1;html=1;dashPattern=1 3;strokeWidth=4;fillColor=#f8cecc;strokeColor=#FF0000;" edge="1" parent="1">
          <mxGeometry width="50" height="50" relative="1" as="geometry">
            <mxPoint x="580" y="840" as="sourcePoint" />
            <mxPoint x="590" y="40" as="targetPoint" />
          </mxGeometry>
        </mxCell>
        <mxCell id="pMh_xQxpy7Jd_t1ipVND-13" value="" style="endArrow=none;dashed=1;html=1;dashPattern=1 3;strokeWidth=4;fillColor=#f8cecc;strokeColor=#FF0000;" edge="1" parent="1">
          <mxGeometry width="50" height="50" relative="1" as="geometry">
            <mxPoint x="90" y="850" as="sourcePoint" />
            <mxPoint x="100" y="50" as="targetPoint" />
          </mxGeometry>
        </mxCell>
        <mxCell id="pMh_xQxpy7Jd_t1ipVND-14" value="" style="endArrow=none;dashed=1;html=1;dashPattern=1 3;strokeWidth=4;fillColor=#f8cecc;strokeColor=#FF0000;" edge="1" parent="1">
          <mxGeometry width="50" height="50" relative="1" as="geometry">
            <mxPoint x="190" y="850" as="sourcePoint" />
            <mxPoint x="200" y="50" as="targetPoint" />
          </mxGeometry>
        </mxCell>
        <mxCell id="pMh_xQxpy7Jd_t1ipVND-15" value="一周前" style="text;html=1;strokeColor=#b85450;fillColor=#f8cecc;align=center;verticalAlign=middle;whiteSpace=wrap;rounded=0;fontSize=20;" vertex="1" parent="1">
          <mxGeometry x="320" y="400" width="120" height="60" as="geometry" />
        </mxCell>
        <mxCell id="pMh_xQxpy7Jd_t1ipVND-16" value="两周前" style="text;html=1;strokeColor=#b85450;fillColor=#f8cecc;align=center;verticalAlign=middle;whiteSpace=wrap;rounded=0;fontSize=20;" vertex="1" parent="1">
          <mxGeometry x="110" y="110" width="80" height="40" as="geometry" />
        </mxCell>
        <mxCell id="pMh_xQxpy7Jd_t1ipVND-17" value="三周前" style="text;html=1;strokeColor=#b85450;fillColor=#f8cecc;align=center;verticalAlign=middle;whiteSpace=wrap;rounded=0;fontSize=20;" vertex="1" parent="1">
          <mxGeometry y="460" width="80" height="40" as="geometry" />
        </mxCell>
      </root>
    </mxGraphModel>
  </diagram>
</mxfile>
